<?xml version="1.0" encoding="utf-8"?>
<!-- Generator: Adobe Illustrator 23.1.0, SVG Export Plug-In . SVG Version: 6.00 Build 0)  -->
<svg version="1.1" id="nopcommerce_full_logo" xmlns="http://www.w3.org/2000/svg" xmlns:xlink="http://www.w3.org/1999/xlink" x="0px" y="0px"
	 viewBox="0 0 2994 500" style="enable-background:new 0 0 2994 500;" xml:space="preserve">
<style type="text/css">
	.st0{fill:#363E4E;}
	.st1{fill:#40BDD7;}
</style>
<path class="st0" d="M854.33,202.15c15.26-15.75,31.66-23.63,49.18-23.63c11.51,0,20.09,3.19,25.72,9.57
	c5.63,6.38,8.45,14.94,8.45,25.69V330.4h33.04V208.9c0-18-5.13-32.06-15.39-42.18c-10.26-10.13-24.4-15.19-42.42-15.19
	c-12.52,0-23.59,2.31-33.22,6.93c-9.64,4.63-18.84,11.32-27.59,20.06l-4.88-24.37h-25.9V330.4h33.04V202.15z"/>
<path class="st0" d="M1159.33,201.97c-4.38-11.13-10.39-20.45-18.02-27.94c-7.64-7.5-16.65-13.12-27.03-16.88
	c-10.39-3.74-21.72-5.62-33.98-5.62c-12.27,0-23.65,2.07-34.16,6.19s-19.71,10.13-27.59,18c-7.88,7.87-14.08,17.56-18.58,29.06
	c-4.51,11.5-6.76,24.63-6.76,39.38c0,14.5,2.19,27.31,6.57,38.43c4.38,11.13,10.38,20.5,18.02,28.13
	c7.63,7.62,16.64,13.37,27.03,17.25c10.38,3.87,21.71,5.81,33.98,5.81c12.26,0,23.65-2.07,34.16-6.19
	c10.51-4.13,19.71-10.19,27.59-18.19c7.88-8,14.08-17.81,18.58-29.44c4.51-11.63,6.76-24.81,6.76-39.56
	C1165.9,225.91,1163.7,213.09,1159.33,201.97z M1127.04,273.96c-2.88,8.38-6.7,15.12-11.45,20.25c-4.76,5.12-10.26,8.75-16.52,10.87
	c-6.26,2.13-12.64,3.19-19.15,3.19c-6.51,0-12.89-1.25-19.15-3.75c-6.26-2.49-11.83-6.37-16.71-11.63
	c-4.88-5.25-8.82-12.06-11.83-20.44c-3-8.37-4.5-18.43-4.5-30.19c0-12.75,1.44-23.3,4.32-31.68c2.87-8.38,6.69-15.06,11.45-20.07
	c4.75-5,10.26-8.5,16.52-10.5c6.25-2,12.64-3,19.15-3c6.51,0,12.89,1.19,19.15,3.56c6.25,2.38,11.83,6.19,16.71,11.44
	c4.88,5.26,8.82,12,11.83,20.26c3,8.25,4.51,18.25,4.51,29.99C1131.36,255.03,1129.91,265.59,1127.04,273.96z"/>
<path class="st0" d="M1293.02,328.15c10.38-3.75,19.64-9.49,27.78-17.24c8.13-7.75,14.64-17.63,19.52-29.63
	c4.88-12,7.32-26.25,7.32-42.75c0-28-6.76-49.5-20.27-64.5c-13.52-15-32.04-22.5-55.56-22.5c-11.52,0-21.53,2.25-30.03,6.75
	c-8.51,4.5-16.14,9.88-22.9,16.12l-4.88-22.87h-27.41v265.12h32.66V321.4c5.26,3.75,11.57,6.75,18.96,9.01
	c7.38,2.25,15.07,3.38,23.09,3.38C1272.05,333.78,1282.63,331.9,1293.02,328.15z M1301.28,194.84
	c7.88,10.87,11.83,25.69,11.83,44.44c0,12.75-1.63,23.5-4.88,32.25c-3.26,8.76-7.51,15.88-12.76,21.37
	c-5.26,5.5-11.26,9.43-18.02,11.82s-13.52,3.56-20.27,3.56c-6.51,0-13.02-1-19.52-3c-6.51-2-12.64-5.12-18.4-9.37v-94.12
	c4.25-5.25,10.26-10.44,18.02-15.56c7.76-5.12,16.89-7.69,27.41-7.69C1281.19,178.52,1293.39,183.96,1301.28,194.84z"/>
<path class="st0" d="M1468.3,286.15c-8.64-3.25-16.21-8.19-22.71-14.81c-6.51-6.62-11.58-14.93-15.2-24.94
	c-3.63-9.99-5.44-21.63-5.44-34.87c0-14.25,1.88-26.32,5.63-36.2c3.75-9.88,8.88-17.93,15.39-24.19c6.5-6.25,14.14-10.81,22.9-13.69
	c8.76-2.87,18.14-4.31,28.16-4.31c9.51,0,18.21,1.25,26.09,3.75c7.88,2.5,14.7,5.38,20.46,8.63l12.76-41.62
	c-6.01-3.25-14.21-6.43-24.59-9.57c-10.39-3.12-23.84-4.68-40.36-4.68c-19.52,0-37.11,2.94-52.75,8.81
	c-15.65,5.87-28.91,14.12-39.8,24.75c-10.89,10.62-19.27,23.5-25.15,38.62c-5.88,15.13-8.82,31.82-8.82,50.07
	c0,18.74,3.06,35.69,9.2,50.81c6.13,15.14,14.7,28,25.72,38.63c11.01,10.63,24.27,18.81,39.79,24.56
	c15.52,5.75,32.53,8.62,51.06,8.62c16.27,0,29.97-1.49,41.11-4.5c11.13-3,19.2-6,24.21-8.99l-11.26-40.88
	c-5.26,3.25-11.77,5.88-19.52,7.87c-7.76,2.01-17.27,3.01-28.53,3.01C1486.38,291.03,1476.94,289.41,1468.3,286.15z"/>
<path class="st0" d="M1735.57,199.15c-4.76-11.49-11.26-21.18-19.52-29.05c-8.26-7.88-18.08-13.81-29.47-17.82
	c-11.39-4-23.72-6-36.98-6c-13.27,0-25.66,2.2-37.17,6.57c-11.52,4.37-21.53,10.68-30.03,18.93c-8.51,8.25-15.2,18.38-20.09,30.38
	c-4.88,11.99-7.32,25.63-7.32,40.87c0,14.5,2.38,27.44,7.13,38.81c4.75,11.38,11.26,20.94,19.52,28.69
	c8.26,7.75,18.08,13.68,29.47,17.82c11.39,4.12,23.71,6.17,36.98,6.17c13.26,0,25.65-2.18,37.17-6.55
	c11.51-4.37,21.52-10.69,30.03-18.94c8.51-8.25,15.2-18.25,20.09-30c4.88-11.75,7.32-25,7.32-39.75
	C1742.7,224.04,1740.32,210.65,1735.57,199.15z M1682.63,265.9c-2.01,6.75-4.69,12.18-8.07,16.31c-3.38,4.11-7.26,7.12-11.64,9
	c-4.38,1.88-8.95,2.81-13.7,2.81c-9.76,0-18.4-4.25-25.9-12.74c-7.51-8.5-11.26-21.88-11.26-40.14c0-10.5,1-19.17,3-26.06
	c2-6.87,4.69-12.43,8.07-16.68c3.38-4.25,7.26-7.25,11.64-9.01c4.38-1.74,8.95-2.62,13.7-2.62c4.75,0,9.39,1,13.89,3
	c4.5,2,8.5,5.19,12.01,9.55c3.5,4.39,6.25,10.01,8.26,16.88c2,6.89,3,15.19,3,24.93C1685.64,250.9,1684.63,259.15,1682.63,265.9z"/>
<path class="st0" d="M1818.05,207.4c4.25-5.74,9.63-10.37,16.14-13.87c6.5-3.51,12.76-5.25,18.77-5.25c6.76,0,12.14,2.25,16.14,6.76
	c4,4.49,6.01,10.49,6.01,17.99V330.4h55.56V205.9c4.25-5.75,9.63-10.13,16.14-13.12c6.51-3,12.76-4.5,18.77-4.5
	c6.76,0,12.14,2.25,16.14,6.76c4,4.49,6.01,10.49,6.01,17.99V330.4h55.56v-123c0-19.99-5.26-35.18-15.77-45.56
	c-10.51-10.36-25.41-15.56-44.68-15.56c-11.51,0-22.34,2.51-32.47,7.5c-10.14,5-19.21,11.63-27.22,19.88
	c-9.51-18.25-27.16-27.38-52.93-27.38c-11.77,0-22.4,2.38-31.91,7.13c-9.52,4.75-18.27,11.25-26.28,19.49l-6.38-22.5h-43.17V330.4
	h55.56V207.4z"/>
<path class="st0" d="M2118.76,207.4c4.25-5.74,9.63-10.37,16.14-13.87c6.5-3.51,12.76-5.25,18.77-5.25c6.76,0,12.14,2.25,16.14,6.76
	c4,4.49,6.01,10.49,6.01,17.99V330.4h55.56V205.9c4.25-5.75,9.63-10.13,16.14-13.12c6.51-3,12.76-4.5,18.77-4.5
	c6.76,0,12.14,2.25,16.14,6.76c4,4.49,6.01,10.49,6.01,17.99V330.4h55.56v-123c0-19.99-5.26-35.18-15.77-45.56
	c-10.51-10.36-25.41-15.56-44.68-15.56c-11.51,0-22.34,2.51-32.47,7.5c-10.14,5-19.21,11.63-27.22,19.88
	c-9.51-18.25-27.16-27.38-52.94-27.38c-11.77,0-22.4,2.38-31.91,7.13c-9.51,4.75-18.27,11.25-26.28,19.49l-6.38-22.5h-43.17V330.4
	h55.56V207.4z"/>
<path class="st0" d="M2526.73,232.9c0-27.75-7.39-49.13-22.15-64.12c-14.77-15-34.54-22.51-59.32-22.51
	c-13.52,0-25.84,2.32-36.98,6.94c-11.14,4.62-20.71,11.19-28.72,19.68c-8.01,8.51-14.21,18.7-18.58,30.56
	c-4.38,11.88-6.57,24.94-6.57,39.19c0,16,2.69,29.76,8.07,41.25c5.38,11.5,12.63,20.99,21.77,28.5c9.13,7.5,19.77,13.06,31.91,16.68
	c12.14,3.62,24.97,5.43,38.48,5.43c15.02,0,27.72-1.25,38.11-3.74c10.38-2.5,18.96-5.38,25.72-8.63l-10.14-38.24
	c-5.26,2.75-11.77,5.12-19.52,7.12c-7.76,2-16.77,2.99-27.03,2.99c-14.77,0-27.03-2.87-36.79-8.62
	c-9.76-5.75-14.64-14.87-14.64-27.38v-1.5h116.38V232.9z M2411.47,219.4c1-10.5,4.38-18.81,10.14-24.94
	c5.75-6.13,13.01-9.19,21.77-9.19c4.75,0,8.82,0.94,12.2,2.81c3.38,1.88,6.13,4.37,8.26,7.5c2.12,3.13,3.69,6.69,4.69,10.68
	c1,4,1.5,8.13,1.5,12.38L2411.47,219.4z"/>
<path class="st0" d="M2593.49,330.4v-90c0-18.5,3.81-31.5,11.45-39c7.63-7.5,17.2-11.25,28.72-11.25c6.25,0,11.51,0.62,15.77,1.87
	c4.25,1.25,7.76,2.63,10.51,4.13l9.01-43.13c-2.76-1.74-6.45-3.31-11.07-4.68c-4.63-1.37-9.7-2.07-15.2-2.07
	c-7.26,0-13.83,1-19.71,3c-5.88,2-11.08,4.63-15.58,7.87c-4.51,3.26-8.39,7.07-11.64,11.44c-3.26,4.38-6.01,8.81-8.26,13.32
	l-5.63-31.51h-43.55V330.4H2593.49z"/>
<path class="st0" d="M2751.19,291.21c-6.01-1.88-11.39-5-16.14-9.38c-4.76-4.37-8.63-10-11.64-16.88c-3-6.87-4.51-15.31-4.51-25.31
	c0-17.75,4.51-31.06,13.52-39.93c9.01-8.89,20.77-13.32,35.29-13.32c6.25,0,12.45,1.01,18.58,3c6.13,2.01,11.7,4.5,16.71,7.5
	l11.64-37.87c-9.51-4.99-18.83-8.37-27.97-10.12c-9.14-1.74-17.59-2.63-25.34-2.63c-14.77,0-28.16,2.32-40.17,6.94
	c-12.01,4.62-22.4,11.12-31.16,19.5c-8.76,8.38-15.52,18.38-20.27,30c-4.76,11.63-7.13,24.44-7.13,38.43
	c0,15.26,2.5,28.69,7.51,40.32c5,11.63,11.83,21.38,20.46,29.26c8.64,7.87,18.89,13.81,30.78,17.81
	c11.89,3.99,24.84,5.99,38.86,5.99c12.01,0,23.02-1.36,33.04-4.11c10.01-2.75,17.14-5.38,21.4-7.88l-10.14-37.51
	c-3.26,1.76-7.95,3.7-14.08,5.82c-6.14,2.12-13.2,3.18-21.21,3.18C2763.2,294.02,2757.19,293.09,2751.19,291.21z"/>
<path class="st0" d="M2989.51,232.9c0-27.75-7.39-49.13-22.15-64.12c-14.77-15-34.54-22.51-59.32-22.51
	c-13.52,0-25.84,2.32-36.98,6.94c-11.14,4.62-20.71,11.19-28.72,19.68c-8.01,8.51-14.21,18.7-18.58,30.56
	c-4.38,11.88-6.57,24.94-6.57,39.19c0,16,2.69,29.76,8.07,41.25c5.38,11.5,12.63,20.99,21.77,28.5c9.13,7.5,19.77,13.06,31.91,16.68
	c12.14,3.62,24.97,5.43,38.48,5.43c15.02,0,27.72-1.25,38.11-3.74c10.38-2.5,18.96-5.38,25.72-8.63l-10.14-38.24
	c-5.26,2.75-11.77,5.12-19.52,7.12c-7.76,2-16.77,2.99-27.03,2.99c-14.77,0-27.03-2.87-36.79-8.62
	c-9.76-5.75-14.64-14.87-14.64-27.38v-1.5h116.38V232.9z M2874.26,219.4c1-10.5,4.38-18.81,10.14-24.94
	c5.75-6.13,13.01-9.19,21.77-9.19c4.75,0,8.82,0.94,12.2,2.81c3.38,1.88,6.13,4.37,8.26,7.5c2.12,3.13,3.69,6.69,4.69,10.68
	c1,4,1.5,8.13,1.5,12.38L2874.26,219.4z"/>
<path class="st1" d="M590.89,498.01c-43.03-0.18-77.28-33.71-77.29-75.68c-0.01-45.96,40.13-85.23,87.25-85.4
	c41.58-0.14,79.31,36.17,79.37,76.38C680.3,459.02,638.96,498.22,590.89,498.01z"/>
<path class="st1" d="M307.04,433.93c0.61-45.29,38.98-84.68,82.5-84.69c28.84,0,53.6,19.41,60.39,47.36
	c11.87,48.83-29.04,101.85-79.39,102.87C334.81,500.2,306.54,471.03,307.04,433.93z"/>
<path class="st1" d="M672.35,241.07c9.83-27.62,0.19-53.81-24.28-70.17c-30.81-20.61-79.28-11.82-104.87,19.03
	c-12.01,14.47-19.67,30.75-17.68,49.88c3.75,35.94,32.67,58.15,71.38,55.56C635.23,290.81,662.19,269.6,672.35,241.07z"/>
<path class="st1" d="M390.09,309.46c-37.61-0.01-61.62-30.02-53.57-66.95c7.63-35.05,42.08-63.32,77.66-63.72
	c37.82-0.41,63,30.43,54.92,67.29C461.32,281.53,426.5,309.46,390.09,309.46z"/>
<path class="st1" d="M146.85,437.59c3.07-29.6,19.56-56.61,52.85-71.04c39.61-17.18,77.92,10.97,74.31,54.04
	c-2.77,33.09-19.46,57.76-49.13,72.54C185.07,512.97,146.05,487.81,146.85,437.59z"/>
<path class="st1" d="M623.85,0.05c7.23-0.73,18.42,2.13,28.75,8.52c23.6,14.61,30.5,40.47,17.61,66.12
	c-15.66,31.17-57.55,50.44-91.65,42.15c-37.84-9.2-53.16-46.21-31.72-78.5C563.71,12.94,588.1,0.25,623.85,0.05z"/>
<path class="st1" d="M0.01,439.15c1.1-21.12,17.1-46.34,46.65-62c33.79-17.91,69.06,4.21,66.76,41.84
	c-1.97,32.32-17.7,57.51-46.58,73.01C32.12,510.66,0,491.02,0.01,439.15z"/>
<path class="st1" d="M407.9,142.86c-33.84-0.09-54.79-27.68-45.44-59.83c10.1-34.67,53.61-61.26,87.41-53.38
	c27.74,6.46,41.75,30.48,33.78,57.89C474.73,118.22,440.88,142.93,407.9,142.86z"/>
<path class="st1" d="M257.54,202.23c28.5,0.09,47.94,24.59,42.9,54.08c-5.27,30.85-33,57.94-64.06,62.62
	c-28.24,4.24-51.25-15.17-51.56-43.48C184.42,238.64,220.69,202.11,257.54,202.23z"/>
<path class="st1" d="M213.25,125.63c1.23-39.46,48.34-77.3,85.68-68.83c17.6,3.99,29.99,17.98,31.59,35.64
	c3.56,39.48-46.2,82.7-85.21,74.03C225.15,161.97,212.62,146.01,213.25,125.63z"/>
<path class="st1" d="M84.04,331.73c-22.41-0.09-38.11-16.91-37.85-40.53c0.38-34.16,30.14-68.55,63.97-73.93
	c24.12-3.81,43.44,11.18,45.85,35.58C159.67,289.93,121.4,331.86,84.04,331.73z"/>
<path class="st1" d="M86.59,148.6c0.45-30.64,32.45-63.51,63.61-65.31c24.07-1.41,39.99,16.31,36.43,40.5
	c-4.11,27.92-33.53,56.06-61.67,58.97C102.38,185.1,86.26,170.75,86.59,148.6z"/>
<path class="st1" d="M590.89,498.01c-43.03-0.18-77.28-33.71-77.29-75.68c-0.01-45.96,40.13-85.23,87.25-85.4
	c41.58-0.14,79.31,36.17,79.37,76.38C680.3,459.02,638.96,498.22,590.89,498.01z"/>
<path class="st1" d="M307.04,433.93c0.61-45.29,38.98-84.68,82.5-84.69c28.84,0,53.6,19.41,60.39,47.36
	c11.87,48.83-29.04,101.85-79.39,102.87C334.81,500.2,306.54,471.03,307.04,433.93z"/>
<path class="st1" d="M672.35,241.07c9.83-27.62,0.19-53.81-24.28-70.17c-30.81-20.61-79.28-11.82-104.87,19.03
	c-12.01,14.47-19.67,30.75-17.68,49.88c3.75,35.94,32.67,58.15,71.38,55.56C635.23,290.81,662.19,269.6,672.35,241.07z"/>
<path class="st1" d="M390.09,309.46c-37.61-0.01-61.62-30.02-53.57-66.95c7.63-35.05,42.08-63.32,77.66-63.72
	c37.82-0.41,63,30.43,54.92,67.29C461.32,281.53,426.5,309.46,390.09,309.46z"/>
<path class="st1" d="M146.85,437.59c3.07-29.6,19.56-56.61,52.85-71.04c39.61-17.18,77.92,10.97,74.31,54.04
	c-2.77,33.09-19.46,57.76-49.13,72.54C185.07,512.97,146.05,487.81,146.85,437.59z"/>
<path class="st1" d="M623.85,0.05c7.23-0.73,18.42,2.13,28.75,8.52c23.6,14.61,30.5,40.47,17.61,66.12
	c-15.66,31.17-57.55,50.44-91.65,42.15c-37.84-9.2-53.16-46.21-31.72-78.5C563.71,12.94,588.1,0.25,623.85,0.05z"/>
<path class="st1" d="M0.01,439.15c1.1-21.12,17.1-46.34,46.65-62c33.79-17.91,69.06,4.21,66.76,41.84
	c-1.97,32.32-17.7,57.51-46.58,73.01C32.12,510.66,0,491.02,0.01,439.15z"/>
<path class="st1" d="M407.9,142.86c-33.84-0.09-54.79-27.68-45.44-59.83c10.1-34.67,53.61-61.26,87.41-53.38
	c27.74,6.46,41.75,30.48,33.78,57.89C474.73,118.22,440.88,142.93,407.9,142.86z"/>
<path class="st1" d="M257.54,202.23c28.5,0.09,47.94,24.59,42.9,54.08c-5.27,30.85-33,57.94-64.06,62.62
	c-28.24,4.24-51.25-15.17-51.56-43.48C184.42,238.64,220.69,202.11,257.54,202.23z"/>
<path class="st1" d="M213.25,125.63c1.23-39.46,48.34-77.3,85.68-68.83c17.6,3.99,29.99,17.98,31.59,35.64
	c3.56,39.48-46.2,82.7-85.21,74.03C225.15,161.97,212.62,146.01,213.25,125.63z"/>
<path class="st1" d="M84.04,331.73c-22.41-0.09-38.11-16.91-37.85-40.53c0.38-34.16,30.14-68.55,63.97-73.93
	c24.12-3.81,43.44,11.18,45.85,35.58C159.67,289.93,121.4,331.86,84.04,331.73z"/>
<path class="st1" d="M86.59,148.6c0.45-30.64,32.45-63.51,63.61-65.31c24.07-1.41,39.99,16.31,36.43,40.5
	c-4.11,27.92-33.53,56.06-61.67,58.97C102.38,185.1,86.26,170.75,86.59,148.6z"/>
</svg>
