<svg id="Men_12" xmlns="http://www.w3.org/2000/svg" width="41.708" height="90.975" viewBox="0 0 41.708 90.975">
  <path id="_Контур_" data-name="&lt;Контур&gt;" d="M253.657,40.335a32.612,32.612,0,0,1-4.713,6.431c-.508.592-4.425-.905-3.6-1.328s3.385-3.994,4.671-6.38a81.4,81.4,0,0,0,2.742-8.707c.8-2.919,1.5-7.2,2.09-9.215a3.935,3.935,0,0,1,3-3.055c1.413-.33,2.327.059,2.065,1.768C259.42,22.827,257.11,34.454,253.657,40.335Z" transform="translate(-234.424 -2.767)" fill="#ffcea9"/>
  <path id="Path_94" data-name="Path 94" d="M256.15,98.25c-1.21.99-3,.085-3.1.178a55.618,55.618,0,0,1-4.476,3.732c-.762.592-1.938,1.388-1.692,2.539.381,2.039,3.655,1.413,4.891.787s2.251-1.692,3.385-2.386c.846-.525,1.692-.787,1.785-1.845A7.029,7.029,0,0,0,256.15,98.25Z" transform="translate(-234.674 -15.117)" fill="#dedede"/>
  <path id="Path_95" data-name="Path 95" d="M256.931,101.3c-.161,1.007-.973,1.286-1.8,1.8-1.185.736-2.234,1.8-3.469,2.428s-3.985,1.151-4.789-.313c.432,1.972,3.655,1.354,4.874.736s2.251-1.692,3.385-2.386c.846-.525,1.692-.787,1.785-1.845A2.606,2.606,0,0,0,256.931,101.3Z" transform="translate(-234.677 -15.586)"/>
  <path id="Path_96" data-name="Path 96" d="M241.616,89.859c-1.21.99-3.334-.085-3.427,0a44.842,44.842,0,0,1-4,3.613c-.762.6-1.938,1.4-1.692,2.538.381,2.048,3.655,1.422,4.9.8s2.242-1.692,3.385-2.395c.846-.516,1.692-.787,1.785-1.836A5.629,5.629,0,0,0,241.616,89.859Z" transform="translate(-232.46 -13.825)" fill="#dedede"/>
  <path id="Path_97" data-name="Path 97" d="M242.521,92.74c-.161,1.007-.973,1.286-1.8,1.8-1.185.736-2.234,1.8-3.469,2.428s-3.994,1.151-4.789-.313c.432,1.972,3.647,1.354,4.874.736S239.576,95.7,240.719,95c.846-.516,1.692-.778,1.785-1.836a2.608,2.608,0,0,0,.017-.423Z" transform="translate(-232.46 -14.269)"/>
  <path id="_Контур_2" data-name="&lt;Контур&gt;" d="M270.6,51.7c1.345,8.411-2.386,11.55-7.243,13.336-3.486,1.286-8.462,3.266-8.462,3.266s.068,1.845.1,5.982c0,3.647-.44,16.923-.44,16.923a4.07,4.07,0,0,1-3.723,0s-1.955-10.2-2.369-14.8c-.567-6.236-1.523-10.323-1.2-11.669.279-1.185,7.1-4.535,9.266-6.329L242.241,63.2a25.238,25.238,0,0,1,.415,4.7c-.127,4.95-.406,15.671-.406,15.671s-1.955,1.413-3.63,0c0,0-3.6-21.213-3.156-24.023.415-2.665,13.006-8.115,15.231-9.993a3.554,3.554,0,0,1,2.792-.753Z" transform="translate(-232.916 -7.503)" fill="#414141"/>
  <g id="_Группа_" data-name="&lt;Группа&gt;" transform="translate(0.987 35.926)">
    <g id="_Группа_2" data-name="&lt;Группа&gt;">
      <path id="_Контур_3" data-name="&lt;Контур&gt;" d="M236.54,55.358l9.6-5.542a.533.533,0,0,1,.55,0l16.839,9.722-9.875,5.7Z" transform="translate(-234.075 -43.58)" fill="#f4f4f4"/>
      <path id="Path_98" data-name="Path 98" d="M257.123,65.645l.736.423c.059,0,.051.093,0,.135l-.7.406a.271.271,0,0,1-.228,0l-.736-.423c-.059,0-.051-.093,0-.135l.7-.406a.271.271,0,0,1,.228,0Z" transform="translate(-237.091 -46.023)" fill="#3a2c6d"/>
      <path id="Path_99" data-name="Path 99" d="M255.9,64.994l.728.415c.059,0,.051.1,0,.135l-.694.406a.262.262,0,0,1-.237,0l-.728-.423c-.059,0-.051-.093,0-.135l.694-.4A.237.237,0,0,1,255.9,64.994Z" transform="translate(-236.904 -45.922)" fill="#3a2c6d"/>
      <path id="Path_100" data-name="Path 100" d="M254.663,64.224l.728.423c.059,0,.059.093,0,.135l-.694.4a.262.262,0,0,1-.237,0l-.728-.423c-.059,0-.051-.093,0-.135l.694-.406a.262.262,0,0,1,.237.008Z" transform="translate(-236.713 -45.803)" fill="#3a2c6d"/>
      <path id="Path_101" data-name="Path 101" d="M253.453,63.525l.728.423c.059,0,.059.093,0,.135l-.694.406a.288.288,0,0,1-.237,0l-.728-.423c-.059,0-.051-.093,0-.135l.694-.406A.288.288,0,0,1,253.453,63.525Z" transform="translate(-236.527 -45.697)" fill="#3a2c6d"/>
      <path id="Path_102" data-name="Path 102" d="M252.223,62.816l.736.423c.059,0,.051.1,0,.135l-.7.406a.245.245,0,0,1-.228,0l-.736-.423c-.059,0-.051-.093,0-.135l.7-.4a.246.246,0,0,1,.229-.008Z" transform="translate(-236.338 -45.588)" fill="#3a2c6d"/>
      <path id="Path_103" data-name="Path 103" d="M251,62.115l.736.423c.059,0,.051.093,0,.135l-.7.4a.245.245,0,0,1-.228,0l-.736-.423c-.059,0-.051-.093,0-.127l.7-.406A.245.245,0,0,1,251,62.115Z" transform="translate(-236.15 -45.479)" fill="#3a2c6d"/>
      <path id="Path_104" data-name="Path 104" d="M249.823,61.405l.728.423c.059,0,.051.093,0,.135l-.694.406a.288.288,0,0,1-.237,0l-.728-.423c-.059,0-.059-.093,0-.135l.694-.406a.288.288,0,0,1,.237,0Z" transform="translate(-235.968 -45.371)" fill="#3a2c6d"/>
      <path id="Path_105" data-name="Path 105" d="M248.553,60.7l.736.423c.059,0,.051.1,0,.135l-.7.406a.245.245,0,0,1-.228,0l-.736-.423c-.059,0-.051-.093,0-.135l.7-.4a.245.245,0,0,1,.228-.008Z" transform="translate(-235.773 -45.262)" fill="#3a2c6d"/>
      <path id="Path_106" data-name="Path 106" d="M247.333,59.995l.728.423c.059,0,.051.093,0,.135l-.694.4a.262.262,0,0,1-.237,0l-.728-.423c-.059,0-.051-.093,0-.127l.694-.406a.262.262,0,0,1,.237,0Z" transform="translate(-235.585 -45.153)" fill="#3a2c6d"/>
      <path id="Path_107" data-name="Path 107" d="M246.1,59.285l.736.423c.059,0,.051.093,0,.135l-.7.406a.271.271,0,0,1-.228,0l-.736-.423c-.059,0-.051-.093,0-.135l.7-.406a.245.245,0,0,1,.228,0Z" transform="translate(-235.396 -45.044)" fill="#3a2c6d"/>
      <path id="Path_108" data-name="Path 108" d="M244.883,58.576l.728.423c.059,0,.059.093,0,.135l-.694.406a.262.262,0,0,1-.237,0l-.728-.423c-.059,0-.051-.093,0-.135l.694-.4A.262.262,0,0,1,244.883,58.576Z" transform="translate(-235.208 -44.935)" fill="#3a2c6d"/>
      <path id="Path_109" data-name="Path 109" d="M243.662,57.875l.728.423c.059,0,.051.093,0,.135l-.7.4a.245.245,0,0,1-.228,0l-.736-.423c-.059,0-.051-.093,0-.135l.7-.4A.262.262,0,0,1,243.662,57.875Z" transform="translate(-235.019 -44.827)" fill="#3a2c6d"/>
      <path id="Path_110" data-name="Path 110" d="M242.433,57.164l.736.423c.059,0,.051.093,0,.135l-.7.4a.245.245,0,0,1-.228,0L241.5,57.7c-.059,0-.051-.1,0-.135l.7-.406a.245.245,0,0,1,.228.008Z" transform="translate(-234.832 -44.717)" fill="#3a2c6d"/>
      <path id="Path_111" data-name="Path 111" d="M240.623,56.115l1.227.711c.059,0,.051.093,0,.135l-.694.406a.288.288,0,0,1-.237,0l-1.227-.711c-.059,0-.059-.093,0-.135l.694-.406a.288.288,0,0,1,.237,0Z" transform="translate(-234.553 -44.557)" fill="#3a2c6d"/>
      <path id="Path_112" data-name="Path 112" d="M256.493,63.915l.736.423c.059,0,.051.093,0,.135l-.7.4a.22.22,0,0,1-.228,0l-.736-.415c-.059,0-.051-.1,0-.135l.7-.406a.245.245,0,0,1,.228,0Z" transform="translate(-236.995 -45.756)" fill="#3a2c6d"/>
      <path id="Path_113" data-name="Path 113" d="M255.273,63.2l.728.423c.059,0,.051.093,0,.135l-.694.406a.288.288,0,0,1-.237,0l-.728-.423c-.059,0-.059-.093,0-.135l.694-.406A.262.262,0,0,1,255.273,63.2Z" transform="translate(-236.806 -45.647)" fill="#3a2c6d"/>
      <path id="Path_114" data-name="Path 114" d="M254.043,62.5l.728.423c.068,0,.059.093,0,.135l-.694.406a.288.288,0,0,1-.237,0l-.728-.423c-.059,0-.051-.093,0-.135l.694-.406a.288.288,0,0,1,.237,0Z" transform="translate(-236.618 -45.538)" fill="#3a2c6d"/>
      <path id="Path_115" data-name="Path 115" d="M252.823,61.786l.736.423c.059,0,.051.1,0,.135l-.7.406a.245.245,0,0,1-.228,0l-.736-.423c-.059,0-.051-.093,0-.135l.7-.4A.245.245,0,0,1,252.823,61.786Z" transform="translate(-236.43 -45.429)" fill="#3a2c6d"/>
      <path id="Path_116" data-name="Path 116" d="M251.6,61.085l.728.423c.059,0,.051.093,0,.135l-.694.406a.288.288,0,0,1-.237,0l-.728-.423c-.059,0-.059-.093,0-.135l.694-.406A.288.288,0,0,1,251.6,61.085Z" transform="translate(-236.242 -45.321)" fill="#3a2c6d"/>
      <path id="Path_117" data-name="Path 117" d="M250.373,60.376l.736.423c.059,0,.051.1,0,.135l-.7.406a.245.245,0,0,1-.228,0l-.736-.423c-.059,0-.051-.093,0-.135l.7-.4a.246.246,0,0,1,.229-.008Z" transform="translate(-236.053 -45.212)" fill="#3a2c6d"/>
      <path id="Path_118" data-name="Path 118" d="M249.143,59.675l.736.423c.059,0,.051.093,0,.127l-.7.406a.245.245,0,0,1-.228,0l-.736-.423c-.059,0-.051-.093,0-.135l.7-.4A.245.245,0,0,1,249.143,59.675Z" transform="translate(-235.864 -45.104)" fill="#3a2c6d"/>
      <path id="Path_119" data-name="Path 119" d="M247.923,58.995l.728.423c.059,0,.051.093,0,.135l-.694.4a.262.262,0,0,1-.237,0l-.728-.423c-.059,0-.051-.093,0-.127l.694-.406a.262.262,0,0,1,.237,0Z" transform="translate(-235.676 -44.999)" fill="#3a2c6d"/>
      <path id="Path_120" data-name="Path 120" d="M246.693,58.254l.736.423c.059,0,.051.093,0,.135l-.7.4a.245.245,0,0,1-.228,0l-.736-.423c-.059,0-.051-.1,0-.135l.7-.406a.245.245,0,0,1,.228.008Z" transform="translate(-235.487 -44.885)" fill="#3a2c6d"/>
      <path id="Path_121" data-name="Path 121" d="M245.472,57.545l.728.423c.059,0,.051.093,0,.135l-.7.406a.271.271,0,0,1-.228,0l-.736-.423c-.059,0-.051-.093,0-.135l.7-.406A.288.288,0,0,1,245.472,57.545Z" transform="translate(-235.298 -44.777)" fill="#3a2c6d"/>
      <path id="Path_122" data-name="Path 122" d="M244.243,56.835l.728.423c.059,0,.059.093,0,.135l-.694.406a.262.262,0,0,1-.237,0l-.728-.423c-.059,0-.051-.093,0-.135l.694-.406A.288.288,0,0,1,244.243,56.835Z" transform="translate(-235.11 -44.668)" fill="#3a2c6d"/>
      <path id="Path_123" data-name="Path 123" d="M243.013,56.134l.736.415c.059,0,.051.1,0,.135l-.7.406a.245.245,0,0,1-.228,0l-.736-.423c-.059,0-.051-.093,0-.135l.7-.4A.22.22,0,0,1,243.013,56.134Z" transform="translate(-234.921 -44.559)" fill="#3a2c6d"/>
      <path id="Path_124" data-name="Path 124" d="M257.723,64.625l1.227.711c.059,0,.059.093,0,.135l-.694.4a.262.262,0,0,1-.237,0l-1.227-.711c-.059,0-.051-.093,0-.135l.694-.4A.262.262,0,0,1,257.723,64.625Z" transform="translate(-237.184 -45.865)" fill="#3a2c6d"/>
      <path id="Path_125" data-name="Path 125" d="M240.856,55.877l.728.423a.254.254,0,0,0,.22,0l.736-.432a.068.068,0,0,0,0-.127h-.059c-.051,0-.051-.076,0-.11l.778-.448c.068,0,.068-.093,0-.127l-.465-.271a.254.254,0,0,0-.22,0l-.728.423-.152.085-.11.068-.11.059-.626.364a.068.068,0,0,0,.008.093Z" transform="translate(-234.735 -44.352)" fill="#3a2c6d"/>
      <path id="Path_126" data-name="Path 126" d="M261.823,62.9l.736.423c.059,0,.051.093,0,.135l-.7.4a.22.22,0,0,1-.228,0l-.736-.415a.076.076,0,0,1,0-.135l.7-.406A.245.245,0,0,1,261.823,62.9Z" transform="translate(-237.814 -45.601)" fill="#3a2c6d"/>
      <path id="Path_127" data-name="Path 127" d="M260.643,62.2l.736.423c.059,0,.051.1,0,.135l-.7.406a.245.245,0,0,1-.228,0l-.736-.423c-.059,0-.051-.093,0-.135l.7-.4a.245.245,0,0,1,.229-.008Z" transform="translate(-237.633 -45.492)" fill="#3a2c6d"/>
      <path id="Path_128" data-name="Path 128" d="M259.423,61.494l.736.423c.059,0,.051.093,0,.135l-.7.4a.245.245,0,0,1-.228,0l-.736-.423c-.059,0-.051-.1,0-.135l.7-.406a.245.245,0,0,1,.228.008Z" transform="translate(-237.445 -45.383)" fill="#3a2c6d"/>
      <path id="Path_129" data-name="Path 129" d="M249.032,55.495l.728.423c.059,0,.051.093,0,.135l-.694.4a.262.262,0,0,1-.237,0l-.728-.423c-.068,0-.059-.093,0-.135l.694-.4a.262.262,0,0,1,.237,0Z" transform="translate(-235.846 -44.461)" fill="#3a2c6d"/>
      <path id="Path_130" data-name="Path 130" d="M247.823,54.785l.736.423c.059,0,.051.093,0,.135l-.7.406a.271.271,0,0,1-.228,0l-.736-.423c-.059,0-.051-.093,0-.135l.7-.406a.271.271,0,0,1,.228,0Z" transform="translate(-235.661 -44.352)" fill="#3a2c6d"/>
      <path id="Path_131" data-name="Path 131" d="M246.583,54.085l.736.423c.059,0,.051.093,0,.135l-.7.4a.245.245,0,0,1-.228,0l-.736-.423c-.059,0-.051-.093,0-.127l.7-.406a.245.245,0,0,1,.228,0Z" transform="translate(-235.47 -44.244)" fill="#3a2c6d"/>
      <path id="Path_132" data-name="Path 132" d="M245.363,53.375l.736.423c.059,0,.051.093,0,.135l-.7.406a.271.271,0,0,1-.229,0l-.736-.423c-.059,0-.051-.093,0-.135l.7-.406A.271.271,0,0,1,245.363,53.375Z" transform="translate(-235.282 -44.135)" fill="#3a2c6d"/>
      <path id="Path_133" data-name="Path 133" d="M257.9,60.607l1,.575c.059,0,.051.1,0,.135l-.7.406a.245.245,0,0,1-.228,0l-.973-.567c-.059,0-.059-.093,0-.135l.694-.406A.288.288,0,0,1,257.9,60.607Z" transform="translate(-237.214 -45.249)" fill="#3a2c6d"/>
      <path id="Path_134" data-name="Path 134" d="M250.253,56.2l1,.575c.059,0,.051.093,0,.135l-.7.406a.271.271,0,0,1-.228,0l-1-.575c-.059,0-.059-.093,0-.135l.694-.406A.288.288,0,0,1,250.253,56.2Z" transform="translate(-236.034 -44.569)" fill="#3a2c6d"/>
      <path id="Path_135" data-name="Path 135" d="M251.823,57.085l4.865,2.809c.059,0,.051.093,0,.135l-.694.4a.262.262,0,0,1-.237,0l-4.865-2.809c-.059,0-.051-.093,0-.127l.7-.406A.245.245,0,0,1,251.823,57.085Z" transform="translate(-236.276 -44.705)" fill="#3a2c6d"/>
      <path id="Path_136" data-name="Path 136" d="M257.353,63l.728.423c.059,0,.051.093,0,.135l-.694.406a.288.288,0,0,1-.237,0l-.728-.423c-.059,0-.059-.093,0-.135l.694-.406a.288.288,0,0,1,.237,0Z" transform="translate(-237.126 -45.615)" fill="#3a2c6d"/>
      <path id="Path_137" data-name="Path 137" d="M256.123,62.326l.736.423c.059,0,.051.1,0,.135l-.7.406a.245.245,0,0,1-.228,0l-.736-.423c-.059,0-.051-.093,0-.135l.7-.4a.245.245,0,0,1,.228-.008Z" transform="translate(-236.938 -45.512)" fill="#3a2c6d"/>
      <path id="Path_138" data-name="Path 138" d="M254.9,61.624l.736.423c.059,0,.051.093,0,.135l-.7.4a.262.262,0,0,1-.237,0l-.728-.423a.076.076,0,0,1,0-.135l.7-.406A.245.245,0,0,1,254.9,61.624Z" transform="translate(-236.75 -45.403)" fill="#3a2c6d"/>
      <path id="Path_139" data-name="Path 139" d="M253.683,60.915l.728.423c.059,0,.051.093,0,.135l-.694.406a.288.288,0,0,1-.237,0l-.728-.423c-.059,0-.051-.093,0-.135l.694-.406A.288.288,0,0,1,253.683,60.915Z" transform="translate(-236.562 -45.295)" fill="#3a2c6d"/>
      <path id="Path_140" data-name="Path 140" d="M252.453,60.215l.736.423c.059,0,.051.093,0,.135l-.7.4a.245.245,0,0,1-.228,0l-.736-.423c-.059,0-.051-.093,0-.135l.7-.4A.245.245,0,0,1,252.453,60.215Z" transform="translate(-236.373 -45.187)" fill="#3a2c6d"/>
      <path id="Path_141" data-name="Path 141" d="M251.233,59.505l.736.423c.059,0,.051.093,0,.135l-.7.406a.271.271,0,0,1-.228,0l-.736-.423c-.059,0-.051-.093,0-.135l.7-.406A.271.271,0,0,1,251.233,59.505Z" transform="translate(-236.185 -45.078)" fill="#3a2c6d"/>
      <path id="Path_142" data-name="Path 142" d="M250.013,58.8l.728.423c.059,0,.059.1,0,.135l-.694.406a.262.262,0,0,1-.237,0l-.728-.423c-.059,0-.051-.093,0-.135l.694-.4A.262.262,0,0,1,250.013,58.8Z" transform="translate(-235.998 -44.969)" fill="#3a2c6d"/>
      <path id="Path_143" data-name="Path 143" d="M248.823,58.095l.728.423c.059,0,.051.093,0,.135l-.694.4a.237.237,0,0,1-.237,0l-.728-.415c-.059,0-.059-.1,0-.135l.694-.406a.262.262,0,0,1,.237,0Z" transform="translate(-235.814 -44.861)" fill="#3a2c6d"/>
      <path id="Path_144" data-name="Path 144" d="M247.563,57.385l.736.423c.059,0,.051.093,0,.135l-.7.406a.271.271,0,0,1-.228,0l-.736-.423c-.059,0-.051-.093,0-.135l.7-.406a.271.271,0,0,1,.228,0Z" transform="translate(-235.621 -44.752)" fill="#3a2c6d"/>
      <path id="Path_145" data-name="Path 145" d="M246.342,56.684l.728.423c.068,0,.059.093,0,.127l-.7.406a.262.262,0,0,1-.237,0l-.728-.423c-.059,0-.051-.093,0-.135l.694-.4A.262.262,0,0,1,246.342,56.684Z" transform="translate(-235.432 -44.644)" fill="#3a2c6d"/>
      <path id="Path_146" data-name="Path 146" d="M245.123,55.994l.728.423c.059,0,.051.093,0,.135l-.694.406a.288.288,0,0,1-.237,0l-.728-.423c-.059,0-.051-.093,0-.135l.677-.406A.262.262,0,0,1,245.123,55.994Z" transform="translate(-235.245 -44.537)" fill="#3a2c6d"/>
      <path id="Path_147" data-name="Path 147" d="M243.893,55.266l.736.423c.059,0,.051.1,0,.135l-.7.406a.245.245,0,0,1-.228,0l-.736-.423c-.059,0-.051-.093,0-.135l.7-.4A.245.245,0,0,1,243.893,55.266Z" transform="translate(-235.056 -44.426)" fill="#3a2c6d"/>
      <path id="Path_148" data-name="Path 148" d="M258.573,63.746l1.515.846c.059,0,.051.093,0,.135l-.7.406a.271.271,0,0,1-.228,0l-1.515-.846c-.059,0-.051-.093,0-.135l.694-.4A.262.262,0,0,1,258.573,63.746Z" transform="translate(-237.314 -45.731)" fill="#3a2c6d"/>
      <path id="Path_149" data-name="Path 149" d="M259.143,62.7l.728.423c.068,0,.059.093,0,.127l-.694.406a.262.262,0,0,1-.237,0l-.728-.423c-.059,0-.051-.093,0-.135l.694-.4A.262.262,0,0,1,259.143,62.7Z" transform="translate(-237.402 -45.57)" fill="#3a2c6d"/>
      <path id="Path_150" data-name="Path 150" d="M257.923,61.995l.728.423c.059,0,.051.093,0,.135l-.694.406a.288.288,0,0,1-.237,0l-.728-.423c-.059,0-.051-.093,0-.135l.694-.406a.262.262,0,0,1,.237,0Z" transform="translate(-237.214 -45.461)" fill="#3a2c6d"/>
      <path id="Path_151" data-name="Path 151" d="M256.693,61.286l.736.423c.059,0,.051.1,0,.135l-.7.406a.245.245,0,0,1-.228,0l-.736-.423c-.059,0-.051-.093,0-.135l.7-.4a.246.246,0,0,1,.229-.008Z" transform="translate(-237.025 -45.352)" fill="#3a2c6d"/>
      <path id="Path_152" data-name="Path 152" d="M255.473,60.585l.736.423c.059,0,.051.093,0,.135l-.7.4a.22.22,0,0,1-.228,0l-.736-.415a.076.076,0,0,1,0-.135l.7-.406A.245.245,0,0,1,255.473,60.585Z" transform="translate(-236.838 -45.244)" fill="#3a2c6d"/>
      <path id="Path_153" data-name="Path 153" d="M254.253,59.875l.728.423c.059,0,.059.093,0,.135l-.694.406a.288.288,0,0,1-.237,0l-.728-.423c-.059,0-.051-.093,0-.135l.694-.406A.288.288,0,0,1,254.253,59.875Z" transform="translate(-236.65 -45.135)" fill="#3a2c6d"/>
      <path id="Path_154" data-name="Path 154" d="M253.033,59.175l.728.423c.059,0,.051.093,0,.127l-.694.406a.262.262,0,0,1-.237,0l-.728-.423c-.059,0-.059-.093,0-.135l.694-.4A.262.262,0,0,1,253.033,59.175Z" transform="translate(-236.462 -45.027)" fill="#3a2c6d"/>
      <path id="Path_155" data-name="Path 155" d="M251.823,58.465l.736.423c.059,0,.051.093,0,.135l-.7.406a.271.271,0,0,1-.228,0l-.736-.423c-.059,0-.051-.093,0-.135l.7-.406a.271.271,0,0,1,.228,0Z" transform="translate(-236.276 -44.918)" fill="#3a2c6d"/>
      <path id="Path_156" data-name="Path 156" d="M250.583,57.756l.736.423c.059,0,.051.1,0,.135l-.7.406a.245.245,0,0,1-.228,0l-.736-.423c-.059,0-.051-.093,0-.135l.7-.4a.245.245,0,0,1,.228-.008Z" transform="translate(-236.085 -44.809)" fill="#3a2c6d"/>
      <path id="Path_157" data-name="Path 157" d="M249.363,57.054l.728.423c.059,0,.051.093,0,.135l-.694.4a.262.262,0,0,1-.237,0l-.728-.423c-.059,0-.051-.1,0-.135l.694-.406A.262.262,0,0,1,249.363,57.054Z" transform="translate(-235.898 -44.7)" fill="#3a2c6d"/>
      <path id="Path_158" data-name="Path 158" d="M248.142,56.345l.728.423c.059,0,.051.093,0,.135l-.694.406a.288.288,0,0,1-.237,0l-.728-.423c-.068,0-.059-.093,0-.135l.694-.406a.288.288,0,0,1,.237,0Z" transform="translate(-235.709 -44.592)" fill="#3a2c6d"/>
      <path id="Path_159" data-name="Path 159" d="M246.913,55.645l.736.423c.059,0,.051.093,0,.135l-.7.4a.245.245,0,0,1-.228,0l-.736-.423c-.059,0-.051-.093,0-.127l.7-.406A.245.245,0,0,1,246.913,55.645Z" transform="translate(-235.521 -44.484)" fill="#3a2c6d"/>
      <path id="Path_160" data-name="Path 160" d="M244.183,54.065l2.014,1.159c.059,0,.051.093,0,.135l-.7.406a.288.288,0,0,1-.237,0L243.252,54.6c-.059,0-.059-.093,0-.127l.694-.406a.262.262,0,0,1,.237,0Z" transform="translate(-235.1 -44.241)" fill="#3a2c6d"/>
      <path id="Path_161" data-name="Path 161" d="M260.363,63.405l1,.575c.059,0,.051.1,0,.135l-.694.406a.262.262,0,0,1-.237,0l-1-.575c-.059,0-.051-.093,0-.135l.7-.406A.271.271,0,0,1,260.363,63.405Z" transform="translate(-237.59 -45.678)" fill="#3a2c6d"/>
      <path id="Path_162" data-name="Path 162" d="M239.456,56.825l14.689,8.462c.059,0,.059.093,0,.135l-.347.195a.245.245,0,0,1-.228,0l-14.7-8.462c-.059,0-.051-.093,0-.135l.347-.2A.288.288,0,0,1,239.456,56.825Z" transform="translate(-234.427 -44.665)" fill="#3a2c6d"/>
      <path id="_Контур_4" data-name="&lt;Контур&gt;" d="M258.573,56.8l-.1.051-2.538,1.472-4.51-2.606-.093-.059,2.632-1.515Z" transform="translate(-236.35 -44.257)" fill="#bfbfbf"/>
      <path id="_Контур_5" data-name="&lt;Контур&gt;" d="M258.489,56.868,255.95,58.34l-4.51-2.606,2.538-1.464Z" transform="translate(-236.367 -44.277)" fill="#e5e5e5"/>
      <path id="_Контур_6" data-name="&lt;Контур&gt;" d="M263.532,60.559v.228a.922.922,0,0,1-.457.8l-8.952,5.162a.905.905,0,0,1-.922,0l-16.2-9.308a.931.931,0,0,1-.465-.846V56.37l17.118,9.883Z" transform="translate(-234.074 -44.6)" fill="#e5e5e5"/>
      <path id="_Контур_7" data-name="&lt;Контур&gt;" d="M252.956,64.288a1.1,1.1,0,0,1-.948-.068l-16.077-9.308a1.092,1.092,0,0,1-.533-.77l-1.768-10.526a1.26,1.26,0,0,1,0-.178,1.075,1.075,0,0,1,.33-.778l16.754,9.672a.846.846,0,0,1,.389.567Z" transform="translate(-233.626 -42.491)" fill="#f4f4f4"/>
      <path id="_Контур_8" data-name="&lt;Контур&gt;" d="M253.267,64.122l-.11.068-.144.068L251.1,52.868a.846.846,0,0,0-.389-.567L234,42.629a.727.727,0,0,1,.22-.169l16.788,9.689a.846.846,0,0,1,.4.567Z" transform="translate(-233.684 -42.46)" fill="#e5e5e5"/>
    </g>
  </g>
  <path id="_Контур_9" data-name="&lt;Контур&gt;" d="M269.54,14.83s-.212,4-.118,4.358,1.836,1.532,2.344,1.955S269,24.8,267.407,25.526s-6.651-1.193-6.769-3.681.846-4.561,1.642-4.671S269.54,14.83,269.54,14.83Z" transform="translate(-236.793 -2.284)" fill="#ffcea9"/>
  <path id="_Контур_10" data-name="&lt;Контур&gt;" d="M269.261,20.158s-2.9,4.332-6.956,4.739c-1.278-1.261-1.4-5.745.372-7.175,0,0-1.625-1.32-2.742-1.058a5.712,5.712,0,0,0-2.538,3.19,26.062,26.062,0,0,0-1.43,9.308c.068,4.231,0,14.986,0,14.986a9.147,9.147,0,0,0,4.273,6.152,13.192,13.192,0,0,0,9.655,1.337,4.778,4.778,0,0,0,3.529-3.122c-.186-2.97-1.362-9.1-.846-12.853s1.286-6.541,1.489-9.562-.4-2.97-1.921-4.053a23.789,23.789,0,0,0-2.885-1.887Z" transform="translate(-236.075 -2.561)" fill="#788759"/>
  <path id="_Контур_11" data-name="&lt;Контур&gt;" d="M265.993,55.738a19.465,19.465,0,0,1,2.276-1.3,4.832,4.832,0,0,0,1.946-1.185c.711-.694,1.878-3.334,2.716-5.923a26.4,26.4,0,0,0,.973-8.944c-.347-3.613-1.65-8.665-1.98-10.738s.338-2.911,1.312-3.672c1.134-.9,2.7-.5,3.537,2.412a55.85,55.85,0,0,1,1.862,12.329,28.076,28.076,0,0,1-1.413,9.113,32.9,32.9,0,0,1-3.469,7.159c-.4.668-.533,1.269-1.142,2.64a9.207,9.207,0,0,1-2.657,3.537c-1.015.728-1.5.846-1.743.694s-.237-.5.195-.846a7.682,7.682,0,0,0,1.811-2.039s-.888.9-1.472,1.388a7.615,7.615,0,0,1-1.692,1.083c-.592.262-1.422-.245-1-.643s.846-.6,1.692-1.337a7.319,7.319,0,0,0,1.21-1.312,14.141,14.141,0,0,1-1.887,1.227,3.224,3.224,0,0,1-1.692.465c-.313,0-.694-.457-.1-.846a11.6,11.6,0,0,0,2.259-1.6c.652-.643,1.015-1.193.846-1.2s-.542.389-1.3.635-1.582,0-1.692-.4S265.282,56.085,265.993,55.738Z" transform="translate(-237.46 -3.625)" fill="#ffcea9"/>
  <path id="_Контур_12" data-name="&lt;Контур&gt;" d="M260.392,6.808h0c.482-3.105,2.725-5.458,5.923-5.28a6.16,6.16,0,0,1,3.139,11.254,6.3,6.3,0,0,1-.5,1.362c-1.125,1.32-4.552,2.166-5.551,2a2.919,2.919,0,0,1-2.538-2.09C259.8,11.615,260.13,8.348,260.392,6.808Z" transform="translate(-236.717 -0.236)" fill="#ffcea9"/>
  <path id="Path_163" data-name="Path 163" d="M269.547,12.549h0l-.3-2.716S271.468,4.1,266.23,5.2c-3.452.728-4.324,1.049-5.373-1.269S263.489-.482,267.914.1a6.075,6.075,0,0,1,5.449,6.169C273.254,7.98,272.8,11.432,269.547,12.549Z" transform="translate(-236.801 -0.003)" fill="#0a0905"/>
  <path id="Path_164" data-name="Path 164" d="M280.316,31.677s-2.86,2.843-6.236,2.022c-.482-.33-1.65-6.972-1.65-6.972s0-3.681,2.826-3.588S280.316,31.677,280.316,31.677Z" transform="translate(-238.609 -3.562)" fill="#788759"/>
  <path id="Path_165" data-name="Path 165" d="M255.865,25.165a3.105,3.105,0,0,1-2.115-.939c.118-1.489,2.022-7.142,5.847-7.556a7.066,7.066,0,0,0-2.386,2.885,36.645,36.645,0,0,0-1.345,5.61Z" transform="translate(-235.735 -2.567)" fill="#788759"/>
</svg>
