<svg xmlns="http://www.w3.org/2000/svg" xmlns:xlink="http://www.w3.org/1999/xlink" width="576.028" height="581.21" viewBox="0 0 576.028 581.21">
    <defs>
      <linearGradient id="linear-gradient" x1="-1.604" y1="6.792" x2="-1.604" y2="6.3" gradientUnits="objectBoundingBox">
        <stop offset="0.21" stop-color="#fff" stop-opacity="0"/>
        <stop offset="1" stop-color="#fff" stop-opacity="0.2"/>
      </linearGradient>
      <linearGradient id="linear-gradient-2" x1="0.175" y1="1.691" x2="0.175" y2="2.041" gradientUnits="objectBoundingBox">
        <stop offset="0" stop-color="#e9eaf2" stop-opacity="0.8"/>
        <stop offset="1" stop-color="#e9eaf2" stop-opacity="0"/>
      </linearGradient>
    </defs>
    <g id="Landings_page_icon" data-name="Landings page icon" transform="translate(78.859 66.14)">
      <path id="blob_1_" class="primary" data-name="blob (1)" d="M350.382,5.013c40.06,31.9,77.572,59.446,102.336,96.055s36.419,82.644,37.875,129.766c1.821,46.759-6.92,94.606-37.147,122.154-29.863,27.186-81.578,34.073-123.095,59.083s-73.566,67.42-111.441,78.657c-38.24,10.874-82.67-10.149-127.829-32.985S-.329,410.259-32.742,371.836c-32.777-38.06-52.079-90.256-52.443-142.452-.728-52.2,17.117-105.117,41.881-157.314C-18.9,19.875,12.417-31.6,58.3-60.232S164.647-94.667,216-79.081C267.712-63.494,310.321-26.884,350.382,5.013Z" transform="translate(6.347 21.392)" 
        fill="#0d41e1"/>
      <g id="Laptop" transform="translate(5.206 24.591)">
        <path id="Path_1" data-name="Path 1" d="M410.553,329.931l-211.6-122.186c-2.97-1.692-5.373-6.312-5.373-10.264V33.774c0-3.96,2.4-5.779,5.373-4.062L410.553,151.9c2.97,1.692,5.373,6.312,5.373,10.264V325.87C415.96,329.83,413.557,331.649,410.553,329.931Z" transform="translate(-35.019 -29.065)" fill="#b1b4c4"/>
        <path id="Path_2" data-name="Path 2" d="M451.33,385.121l2.344-1.354-1.015-6.947Z" transform="translate(-74.67 -82.562)" fill="#b1b4c4"/>
        <path id="Path_3" data-name="Path 3" d="M193.13,30.757l2.31-1.337,3.317,1.9s-3.537.533-3.622.516S193.13,30.757,193.13,30.757Z" transform="translate(-34.95 -29.12)" fill="#b1b4c4"/>
        <path id="Path_4" data-name="Path 4" d="M408.3,331.3,196.662,209.081c-2.97-1.692-5.382-6.312-5.382-10.272V35.144c0-3.96,2.412-5.779,5.382-4.062L408.3,153.268c2.97,1.692,5.373,6.312,5.373,10.272V327.206C413.669,331.158,411.266,332.994,408.3,331.3Z" transform="translate(-34.665 -29.276)" fill="#e4e7f2"/>
        <path id="Path_5" data-name="Path 5" d="M407.856,331.511,196.222,209.325c-2.97-1.692-5.382-6.312-5.382-10.272V35.345c0-3.952,2.412-5.771,5.382-4.062L407.856,153.469c2.962,1.692,5.373,6.312,5.373,10.272V327.449C413.229,331.409,410.817,333.229,407.856,331.511Z" transform="translate(-34.597 -29.307)" fill="#d6d8e5"/>
        <path id="Path_6" data-name="Path 6" d="M410.8,322.2,194,197.039l.127-160.374c0-1.642,1.151-2.31,2.538-1.489L408.3,157.362a5.686,5.686,0,0,1,2.538,4.459Z" transform="translate(-35.083 -29.951)" fill="#fff"/>
        <path id="Path_7" data-name="Path 7" d="M410.737,322.2,194,197.047l.068-160.382c0-1.642,1.151-2.31,2.538-1.489L408.24,157.362a5.7,5.7,0,0,1,2.538,4.459Z" transform="translate(-35.083 -29.951)" opacity="0.5" fill="url(#linear-gradient)"/>
        <path id="Path_8" data-name="Path 8" d="M219.83,460.022,8.2,337.836c-2.97-1.692-2.6-4.7.846-6.685l141.775-81.858c3.385-1.972,8.614-2.192,11.576-.474L374.035,371.005c2.962,1.692,2.589,4.7-.846,6.685L231.405,459.548C227.978,461.52,222.791,461.74,219.83,460.022Z" transform="translate(-6.192 -62.693)" fill="#d6d8e5" opacity="0.4"/>
        <path id="Path_9" data-name="Path 9" d="M225.287,456.75,13.636,334.606c-2.97-1.692-2.6-4.7.846-6.685l141.775-81.849c3.385-1.98,8.614-2.2,11.584-.482L379.475,367.776c2.97,1.692,2.6,4.7-.846,6.685L236.871,456.276C233.444,458.247,228.257,458.467,225.287,456.75Z" transform="translate(-7.029 -62.196)" fill="#b1b4c4"/>
        <path id="Path_10" data-name="Path 10" d="M11.65,346.964V342.97l4.485,1.878Z" transform="translate(-7.032 -77.355)" fill="#b1b4c4"/>
        <path id="Path_11" data-name="Path 11" d="M448.117,392.971v-3.9l-3.317,1.142,2.2,3.232Z" transform="translate(-73.665 -84.447)" fill="#b1b4c4"/>
        <path id="Path_12" data-name="Path 12" d="M225.287,452.775,13.636,330.605c-2.97-1.692-2.6-4.7.846-6.685l141.775-81.858c3.385-1.98,8.614-2.192,11.584-.474L379.475,363.775c2.97,1.692,2.6,4.7-.846,6.685L236.871,452.292C233.444,454.272,228.257,454.492,225.287,452.775Z" transform="translate(-7.029 -61.58)" fill="#e4e7f2"/>
        <path id="Path_13" data-name="Path 13" d="M225.287,452.161,13.636,329.975c-2.97-1.692-2.6-4.713.846-6.685l141.775-81.858c3.385-1.98,8.614-2.192,11.584-.482L379.475,363.145c2.97,1.692,2.6,4.7-.846,6.685L236.871,451.679C233.444,453.659,228.257,453.87,225.287,452.161Z" transform="translate(-7.029 -61.483)" fill="#d6d8e5"/>
        <path id="Path_14" data-name="Path 14" d="M176.018,271.93l-9.849-5.686c-.846-.465-.7-1.278.22-1.811L175.8,259a3.478,3.478,0,0,1,3.131-.127l9.858,5.686c.8.465.7,1.278-.228,1.811l-9.4,5.432A3.5,3.5,0,0,1,176.018,271.93Z" transform="translate(-30.716 -64.37)" fill="#2b303f"/>
        <path id="Path_15" data-name="Path 15" d="M192.509,281.45l-9.858-5.695c-.8-.457-.7-1.269.228-1.811l9.4-5.424a3.5,3.5,0,0,1,3.139-.127l9.849,5.686c.846.465.7,1.278-.22,1.811l-9.409,5.424a3.452,3.452,0,0,1-3.131.135Z" transform="translate(-33.254 -65.834)" fill="#2b303f"/>
        <path id="Path_16" data-name="Path 16" d="M209.178,291.078l-9.849-5.695c-.846-.465-.7-1.278.22-1.811l9.409-5.424a3.452,3.452,0,0,1,3.131-.135l9.858,5.695c.846.457.7,1.269-.228,1.811l-9.4,5.424A3.529,3.529,0,0,1,209.178,291.078Z" transform="translate(-35.817 -67.314)" fill="#2b303f"/>
        <path id="Path_17" data-name="Path 17" d="M225.479,300.48l-9.858-5.686c-.8-.465-.7-1.278.228-1.811l9.4-5.432a3.5,3.5,0,0,1,3.139-.127l9.858,5.686c.8.465.7,1.278-.228,1.811l-9.4,5.432a3.5,3.5,0,0,1-3.139.127Z" transform="translate(-38.326 -68.762)" fill="#2b303f"/>
        <path id="Path_18" data-name="Path 18" d="M241.966,310l-9.858-5.686c-.846-.465-.7-1.278.228-1.811l9.4-5.432a3.5,3.5,0,0,1,3.139-.127l9.849,5.686c.8.465.7,1.278-.228,1.811l-9.4,5.432A3.478,3.478,0,0,1,241.966,310Z" transform="translate(-40.86 -70.226)" fill="#2b303f"/>
        <path id="Path_19" data-name="Path 19" d="M258.45,319.57l-9.849-5.686c-.8-.465-.711-1.278.22-1.811l9.4-5.432a3.5,3.5,0,0,1,3.139-.127l9.858,5.686c.8.465.7,1.278-.228,1.811l-9.4,5.432A3.5,3.5,0,0,1,258.45,319.57Z" transform="translate(-43.399 -71.699)" fill="#2b303f"/>
        <path id="Path_20" data-name="Path 20" d="M274.939,329.04l-9.858-5.686c-.8-.465-.7-1.278.228-1.811l9.4-5.432a3.5,3.5,0,0,1,3.139-.127l9.849,5.686c.8.465.7,1.278-.22,1.811L278.07,328.9A3.452,3.452,0,0,1,274.939,329.04Z" transform="translate(-45.935 -73.155)" fill="#2b303f"/>
        <path id="Path_21" data-name="Path 21" d="M291.421,338.568l-9.849-5.695c-.8-.465-.7-1.269.22-1.811l9.409-5.424a3.452,3.452,0,0,1,3.131-.135l9.858,5.695c.846.465.7,1.269-.228,1.811l-9.418,5.415A3.469,3.469,0,0,1,291.421,338.568Z" transform="translate(-48.472 -74.62)" fill="#2b303f"/>
        <path id="Path_22" data-name="Path 22" d="M307.909,348.07l-9.858-5.686c-.8-.465-.7-1.278.228-1.811l9.4-5.424a3.469,3.469,0,0,1,3.139-.135l9.849,5.695c.8.457.7,1.269-.22,1.811l-9.4,5.424a3.5,3.5,0,0,1-3.139.127Z" transform="translate(-51.007 -76.083)" fill="#2b303f"/>
        <path id="Path_23" data-name="Path 23" d="M324.391,357.573l-9.849-5.686c-.8-.465-.7-1.278.22-1.811l9.392-5.415a3.478,3.478,0,0,1,3.131-.127l9.858,5.686c.8.465.7,1.278-.228,1.811l-9.376,5.432A3.5,3.5,0,0,1,324.391,357.573Z" transform="translate(-53.543 -77.547)" fill="#2b303f"/>
        <path id="Path_24" data-name="Path 24" d="M340.879,367.11l-9.858-5.686c-.8-.465-.7-1.278.228-1.811l9.4-5.432a3.5,3.5,0,0,1,3.139-.127l9.858,5.686c.8.465.7,1.278-.228,1.811l-9.4,5.432A3.5,3.5,0,0,1,340.879,367.11Z" transform="translate(-56.079 -79.012)" fill="#2b303f"/>
        <path id="Path_25" data-name="Path 25" d="M357.369,376.63l-9.858-5.686c-.8-.465-.7-1.278.228-1.811l9.409-5.432a3.5,3.5,0,0,1,3.139-.127l9.849,5.686c.846.465.7,1.278-.228,1.811l-9.375,5.432A3.478,3.478,0,0,1,357.369,376.63Z" transform="translate(-58.616 -80.476)" fill="#2b303f"/>
        <path id="Path_26" data-name="Path 26" d="M373.847,386.149,364,380.454c-.846-.465-.711-1.269.22-1.811l9.4-5.424a3.5,3.5,0,0,1,3.139-.135l9.858,5.695c.8.465.7,1.269-.228,1.811l-9.4,5.424a3.469,3.469,0,0,1-3.139.135Z" transform="translate(-61.149 -81.94)" fill="#2b303f"/>
        <path id="Path_27" data-name="Path 27" d="M397.058,399.544l-16.576-9.57c-.8-.465-.7-1.278.228-1.811l9.435-5.424a3.469,3.469,0,0,1,3.139-.135l16.534,9.6c.8.465.7,1.278-.22,1.811l-9.409,5.432A3.478,3.478,0,0,1,397.058,399.544Z" transform="translate(-63.688 -83.404)" fill="#2b303f"/>
        <path id="Path_28" data-name="Path 28" d="M184.5,295.273l-9.858-5.669c-.846-.465-.7-1.278.228-1.811l9.4-5.432a3.494,3.494,0,0,1,3.139-.127l9.849,5.678c.8.465.7,1.278-.22,1.811l-9.409,5.432a3.478,3.478,0,0,1-3.131.118Z" transform="translate(-32.019 -67.963)" fill="#2b303f"/>
        <path id="Path_29" data-name="Path 29" d="M201.011,304.816l-9.849-5.686c-.8-.465-.7-1.278.22-1.811l9.409-5.4a3.478,3.478,0,0,1,3.131-.127l9.866,5.652c.8.465.7,1.278-.228,1.811l-9.4,5.432A3.5,3.5,0,0,1,201.011,304.816Z" transform="translate(-34.563 -69.434)" fill="#2b303f"/>
        <path id="Path_30" data-name="Path 30" d="M217.526,314.34l-9.858-5.686c-.846-.465-.7-1.278.228-1.811l9.4-5.432a3.5,3.5,0,0,1,3.139-.127l9.849,5.686c.8.465.7,1.278-.22,1.811l-9.409,5.432A3.478,3.478,0,0,1,217.526,314.34Z" transform="translate(-37.1 -70.894)" fill="#2b303f"/>
        <path id="Path_31" data-name="Path 31" d="M234.039,323.874l-9.858-5.695c-.8-.457-.7-1.269.228-1.811l9.4-5.449a3.494,3.494,0,0,1,3.139-.135l9.841,5.72c.8.465.7,1.269-.228,1.811l-9.4,5.424A3.469,3.469,0,0,1,234.039,323.874Z" transform="translate(-39.643 -72.356)" fill="#2b303f"/>
        <path id="Path_32" data-name="Path 32" d="M250.421,333.332l-9.849-5.728c-.8-.465-.7-1.269.22-1.811l9.409-5.424a3.452,3.452,0,0,1,3.131-.135l9.858,5.695c.846.457.7,1.269-.228,1.811l-9.418,5.458a3.5,3.5,0,0,1-3.122.135Z" transform="translate(-42.164 -73.809)" fill="#2b303f"/>
        <path id="Path_33" data-name="Path 33" d="M266.939,342.866l-9.858-5.686c-.8-.465-.7-1.278.228-1.811l9.4-5.449a3.5,3.5,0,0,1,3.139-.127l9.849,5.686c.8.465.7,1.278-.22,1.811l-9.409,5.432A3.478,3.478,0,0,1,266.939,342.866Z" transform="translate(-44.704 -75.28)" fill="#2b303f"/>
        <path id="Path_34" data-name="Path 34" d="M283.449,352.4l-9.858-5.686c-.8-.465-.7-1.278.228-1.811l9.4-5.424a3.469,3.469,0,0,1,3.139-.135l9.858,5.695c.8.457.7,1.269-.228,1.811l-9.4,5.424a3.5,3.5,0,0,1-3.139.127Z" transform="translate(-47.244 -76.749)" fill="#2b303f"/>
        <path id="Path_35" data-name="Path 35" d="M299.961,361.94l-9.849-5.686c-.8-.465-.7-1.278.228-1.811l9.4-5.432a3.477,3.477,0,0,1,3.131-.127l9.858,5.686c.8.465.7,1.278-.228,1.811l-9.4,5.432A3.5,3.5,0,0,1,299.961,361.94Z" transform="translate(-49.785 -78.217)" fill="#2b303f"/>
        <path id="Path_36" data-name="Path 36" d="M316.476,371.47l-9.858-5.686c-.846-.465-.7-1.278.228-1.811l9.4-5.432a3.494,3.494,0,0,1,3.139-.127l9.849,5.686c.8.465.711,1.278-.22,1.811l-9.4,5.432A3.5,3.5,0,0,1,316.476,371.47Z" transform="translate(-52.322 -79.683)" fill="#2b303f"/>
        <path id="Path_37" data-name="Path 37" d="M332.991,381.009l-9.849-5.695c-.8-.457-.7-1.269.22-1.811l9.409-5.424a3.5,3.5,0,0,1,3.131-.135l9.883,5.695c.8.465.7,1.278-.229,1.811l-9.4,5.424A3.469,3.469,0,0,1,332.991,381.009Z" transform="translate(-54.866 -81.15)" fill="#2b303f"/>
        <path id="Path_38" data-name="Path 38" d="M349.509,390.57l-9.858-5.686c-.8-.465-.7-1.278.228-1.811l9.4-5.432a3.5,3.5,0,0,1,3.139-.127l9.849,5.686c.8.465.7,1.278-.22,1.811l-9.409,5.432a3.478,3.478,0,0,1-3.131.127Z" transform="translate(-57.406 -82.621)" fill="#2b303f"/>
        <path id="Path_39" data-name="Path 39" d="M366.02,400.079l-9.849-5.695c-.8-.465-.711-1.269.22-1.811l9.4-5.424a3.5,3.5,0,0,1,3.139-.135l9.858,5.695c.8.465.7,1.269-.228,1.811l-9.4,5.424a3.469,3.469,0,0,1-3.139.135Z" transform="translate(-59.947 -84.083)" fill="#2b303f"/>
        <path id="Path_40" data-name="Path 40" d="M166.759,285.034l-16.568-9.57c-.8-.465-.7-1.269.22-1.811l9.409-5.424a3.452,3.452,0,0,1,3.131-.135l16.61,9.57c.8.465.7,1.278-.228,1.811L169.9,284.89A3.5,3.5,0,0,1,166.759,285.034Z" transform="translate(-28.261 -65.788)" fill="#2b303f"/>
        <path id="Path_41" data-name="Path 41" d="M393.352,402.192l-9.849-5.686a3.216,3.216,0,0,0-2.928,0l-9.934,5.737c-.846.465-.846,1.219,0,1.692l.787.457a.823.823,0,0,1,0,1.557l-10.543,6.059c-.846.474-.846,1.227,0,1.692l6.27,3.622a3.224,3.224,0,0,0,2.919,0l9.832-5.669,2.031-1.176,1.464-.846,1.472-.846,8.462-4.882C394.156,403.411,394.156,402.658,393.352,402.192Z" transform="translate(-60.659 -85.536)" fill="#2b303f"/>
        <path id="Path_42" data-name="Path 42" d="M112.167,308.867l-9.849-5.686c-.846-.465-.7-1.278.22-1.811l9.409-5.449a3.478,3.478,0,0,1,3.131-.127l9.858,5.686c.8.465.7,1.278-.228,1.811l-9.4,5.432A3.5,3.5,0,0,1,112.167,308.867Z" transform="translate(-20.893 -70.049)" fill="#2b303f"/>
        <path id="Path_43" data-name="Path 43" d="M128.608,318.36l-9.849-5.686c-.846-.465-.7-1.278.22-1.811l9.409-5.432a3.478,3.478,0,0,1,3.131-.127l9.858,5.686c.8.465.7,1.278-.228,1.811l-9.4,5.432A3.494,3.494,0,0,1,128.608,318.36Z" transform="translate(-23.422 -71.512)" fill="#2b303f"/>
        <path id="Path_44" data-name="Path 44" d="M145.047,327.85l-9.849-5.686c-.846-.465-.711-1.278.22-1.811l9.4-5.432a3.5,3.5,0,0,1,3.139-.127l9.832,5.686c.8.465.7,1.278-.228,1.811l-9.4,5.432a3.5,3.5,0,0,1-3.114.127Z" transform="translate(-25.951 -72.972)" fill="#2b303f"/>
        <path id="Path_45" data-name="Path 45" d="M285.046,408.679l-9.858-5.695c-.846-.457-.7-1.269.228-1.811l9.4-5.424a3.5,3.5,0,0,1,3.139-.135l9.832,5.695c.846.465.7,1.269-.228,1.811l-9.384,5.466A3.453,3.453,0,0,1,285.046,408.679Z" transform="translate(-47.487 -85.406)" fill="#2b303f"/>
        <path id="Path_46" data-name="Path 46" d="M301.478,418.17l-9.849-5.686c-.846-.465-.7-1.278.22-1.811l9.409-5.432a3.478,3.478,0,0,1,3.131-.127l9.858,5.686c.846.465.7,1.278-.228,1.811l-9.4,5.432A3.5,3.5,0,0,1,301.478,418.17Z" transform="translate(-50.016 -86.867)" fill="#2b303f"/>
        <path id="Path_47" data-name="Path 47" d="M317.921,427.66l-9.849-5.686c-.8-.465-.7-1.278.22-1.811l9.409-5.432a3.478,3.478,0,0,1,3.131-.127l9.858,5.686c.846.465.7,1.278-.228,1.811l-9.4,5.432a3.5,3.5,0,0,1-3.139.127Z" transform="translate(-52.548 -88.327)" fill="#2b303f"/>
        <path id="Path_48" data-name="Path 48" d="M334.361,437.15l-9.849-5.686c-.8-.465-.7-1.278.22-1.811l9.418-5.432a3.478,3.478,0,0,1,3.131-.127l9.858,5.686c.846.465.7,1.278-.228,1.811l-9.376,5.432A3.5,3.5,0,0,1,334.361,437.15Z" transform="translate(-55.077 -89.787)" fill="#2b303f"/>
        <path id="Path_49" data-name="Path 49" d="M165.069,339.413l-13.437-7.759c-.8-.465-.7-1.278.228-1.811l9.4-5.432a3.5,3.5,0,0,1,3.139-.127l13.437,7.759c.846.465.7,1.269-.228,1.811l-9.4,5.424A3.47,3.47,0,0,1,165.069,339.413Z" transform="translate(-28.482 -74.432)" fill="#2b303f"/>
        <path id="Path_50" data-name="Path 50" d="M267.955,398.813l-13.437-7.759c-.846-.465-.7-1.278.22-1.811l9.409-5.432a3.478,3.478,0,0,1,3.131-.127l13.437,7.759c.8.465.7,1.269-.22,1.811l-9.409,5.424a3.452,3.452,0,0,1-3.131.135Z" transform="translate(-44.307 -83.57)" fill="#2b303f"/>
        <path id="Path_51" data-name="Path 51" d="M237.813,381.41l-65.5-37.807c-.8-.465-.7-1.278.22-1.811l9.409-5.432a3.478,3.478,0,0,1,3.131-.127l65.51,37.832c.8.465.7,1.278-.228,1.811l-9.4,5.432A3.5,3.5,0,0,1,237.813,381.41Z" transform="translate(-31.663 -76.271)" fill="#2b303f"/>
        <path id="Path_52" data-name="Path 52" d="M173,307.09l-9.849-5.686c-.8-.465-.7-1.278.228-1.811l9.4-5.432a3.478,3.478,0,0,1,3.131-.127l9.875,5.686c.846.465.7,1.278-.228,1.811l-9.4,5.432A3.5,3.5,0,0,1,173,307.09Z" transform="translate(-30.254 -69.779)" fill="#2b303f"/>
        <path id="Path_53" data-name="Path 53" d="M189.471,316.569l-9.849-5.695c-.8-.465-.7-1.269.22-1.811l9.409-5.424a3.477,3.477,0,0,1,3.131-.135l9.858,5.695c.846.465.7,1.269-.228,1.811l-9.4,5.424A3.469,3.469,0,0,1,189.471,316.569Z" transform="translate(-32.788 -71.236)" fill="#2b303f"/>
        <path id="Path_54" data-name="Path 54" d="M205.936,326.1l-9.858-5.686c-.846-.465-.7-1.278.228-1.811l9.4-5.432a3.5,3.5,0,0,1,3.139-.127l9.849,5.686c.846.465.711,1.278-.22,1.811l-9.4,5.432A3.5,3.5,0,0,1,205.936,326.1Z" transform="translate(-35.317 -72.703)" fill="#2b303f"/>
        <path id="Path_55" data-name="Path 55" d="M222.406,335.576l-9.858-5.686c-.846-.465-.7-1.278.228-1.811l9.375-5.4a3.5,3.5,0,0,1,3.139-.127l9.849,5.686c.846.465.7,1.278-.22,1.811l-9.384,5.432A3.478,3.478,0,0,1,222.406,335.576Z" transform="translate(-37.851 -74.166)" fill="#2b303f"/>
        <path id="Path_56" data-name="Path 56" d="M238.868,345.12l-9.849-5.686c-.846-.465-.7-1.278.22-1.811l9.409-5.432a3.478,3.478,0,0,1,3.131-.127l9.858,5.686c.846.465.7,1.278-.228,1.811l-9.4,5.432A3.494,3.494,0,0,1,238.868,345.12Z" transform="translate(-40.384 -75.629)" fill="#2b303f"/>
        <path id="Path_57" data-name="Path 57" d="M255.337,354.628l-9.849-5.695c-.846-.465-.711-1.269.22-1.811l9.435-5.424a3.469,3.469,0,0,1,3.139-.135l9.858,5.695c.8.465.7,1.269-.228,1.811l-9.4,5.424a3.469,3.469,0,0,1-3.173.135Z" transform="translate(-42.917 -77.091)" fill="#2b303f"/>
        <path id="Path_58" data-name="Path 58" d="M271.809,364.13l-9.858-5.686c-.8-.465-.7-1.278.228-1.811l9.4-5.432a3.5,3.5,0,0,1,3.139-.127l9.849,5.686c.846.465.7,1.278-.22,1.811L274.94,364a3.478,3.478,0,0,1-3.131.127Z" transform="translate(-45.453 -78.553)" fill="#2b303f"/>
        <path id="Path_59" data-name="Path 59" d="M288.279,373.64l-9.858-5.686c-.8-.465-.7-1.278.228-1.811l9.4-5.432a3.5,3.5,0,0,1,3.139-.127l9.849,5.686c.8.465.7,1.278-.228,1.811l-9.4,5.432A3.478,3.478,0,0,1,288.279,373.64Z" transform="translate(-47.987 -80.016)" fill="#2b303f"/>
        <path id="Path_60" data-name="Path 60" d="M304.742,383.15l-9.841-5.686c-.8-.465-.7-1.278.22-1.811l9.409-5.432a3.478,3.478,0,0,1,3.131-.127l9.858,5.686c.8.465.7,1.278-.228,1.811l-9.4,5.432A3.5,3.5,0,0,1,304.742,383.15Z" transform="translate(-50.522 -81.479)" fill="#2b303f"/>
        <path id="Path_61" data-name="Path 61" d="M321.209,392.658l-9.858-5.695c-.8-.465-.7-1.269.228-1.811l9.4-5.424a3.469,3.469,0,0,1,3.139-.135l9.858,5.695c.8.457.7,1.269-.228,1.811l-9.4,5.424A3.5,3.5,0,0,1,321.209,392.658Z" transform="translate(-53.053 -82.941)" fill="#2b303f"/>
        <path id="Path_62" data-name="Path 62" d="M337.679,402.16l-9.858-5.686c-.8-.465-.7-1.278.228-1.811l9.4-5.432a3.5,3.5,0,0,1,3.139-.127l9.849,5.686c.846.465.7,1.278-.22,1.811l-9.409,5.432A3.478,3.478,0,0,1,337.679,402.16Z" transform="translate(-55.587 -84.404)" fill="#2b303f"/>
        <path id="Path_63" data-name="Path 63" d="M354.111,411.67l-9.849-5.686c-.8-.465-.7-1.278.228-1.811l9.4-5.432a3.478,3.478,0,0,1,3.131-.127l9.858,5.686c.8.465.7,1.278-.228,1.811l-9.375,5.475A3.5,3.5,0,0,1,354.111,411.67Z" transform="translate(-58.116 -85.867)" fill="#2b303f"/>
        <path id="Path_64" data-name="Path 64" d="M154.622,296.465,134.238,284.7c-.846-.465-.7-1.278.228-1.811l9.4-5.432a3.5,3.5,0,0,1,3.139-.127l20.376,11.762c.846.465.7,1.278-.22,1.811l-9.409,5.432A3.478,3.478,0,0,1,154.622,296.465Z" transform="translate(-25.804 -67.21)" fill="#2b303f"/>
        <path id="Path_65" data-name="Path 65" d="M148.85,311.573,139,305.9c-.8-.465-.711-1.269.22-1.811l9.4-5.424a3.469,3.469,0,0,1,3.139-.135l9.858,5.695c.8.457.7,1.269-.228,1.811l-9.4,5.424A3.5,3.5,0,0,1,148.85,311.573Z" transform="translate(-26.539 -70.471)" fill="#2b303f"/>
        <path id="Path_66" data-name="Path 66" d="M165.319,321.1l-9.858-5.686c-.8-.465-.7-1.278.228-1.811l9.4-5.432a3.5,3.5,0,0,1,3.139-.127l9.849,5.686c.846.465.7,1.278-.22,1.811l-9.409,5.432a3.478,3.478,0,0,1-3.131.127Z" transform="translate(-29.071 -71.934)" fill="#2b303f"/>
        <path id="Path_67" data-name="Path 67" d="M181.773,330.575l-9.875-5.661c-.846-.465-.7-1.269.229-1.811l9.4-5.424a3.494,3.494,0,0,1,3.139-.135l9.858,5.695c.846.465.7,1.269-.228,1.811l-9.4,5.424A3.469,3.469,0,0,1,181.773,330.575Z" transform="translate(-31.597 -73.396)" fill="#2b303f"/>
        <path id="Path_68" data-name="Path 68" d="M198.238,340.11l-9.849-5.686c-.846-.465-.7-1.278.228-1.811l9.4-5.432a3.478,3.478,0,0,1,3.131-.127l9.858,5.686c.8.465.7,1.278-.228,1.811l-9.4,5.432a3.5,3.5,0,0,1-3.139.127Z" transform="translate(-34.134 -74.858)" fill="#2b303f"/>
        <path id="Path_69" data-name="Path 69" d="M214.717,349.62l-9.816-5.686c-.8-.465-.7-1.278.228-1.811l9.4-5.432a3.5,3.5,0,0,1,3.139-.127l9.849,5.686c.8.465.711,1.278-.22,1.811l-9.4,5.424A3.469,3.469,0,0,1,214.717,349.62Z" transform="translate(-36.677 -76.321)" fill="#2b303f"/>
        <path id="Path_70" data-name="Path 70" d="M231.171,359.12l-9.849-5.686c-.8-.465-.7-1.278.22-1.811l9.409-5.432a3.478,3.478,0,0,1,3.131-.127l9.858,5.686c.8.465.7,1.278-.228,1.811l-9.4,5.432A3.5,3.5,0,0,1,231.171,359.12Z" transform="translate(-39.203 -77.783)" fill="#2b303f"/>
        <path id="Path_71" data-name="Path 71" d="M247.639,368.63l-9.858-5.686c-.8-.465-.7-1.278.228-1.811l9.4-5.432a3.5,3.5,0,0,1,3.139-.127l9.849,5.686c.8.465.7,1.278-.22,1.811l-9.4,5.432A3.5,3.5,0,0,1,247.639,368.63Z" transform="translate(-41.735 -79.246)" fill="#2b303f"/>
        <path id="Path_72" data-name="Path 72" d="M264.111,378.138l-9.849-5.695c-.8-.465-.7-1.269.22-1.811l9.409-5.424a3.452,3.452,0,0,1,3.131-.135l9.858,5.695c.8.457.7,1.269-.228,1.811L267.25,378A3.5,3.5,0,0,1,264.111,378.138Z" transform="translate(-44.27 -80.707)" fill="#2b303f"/>
        <path id="Path_73" data-name="Path 73" d="M280.569,387.64l-9.858-5.686c-.8-.465-.7-1.278.228-1.811l9.4-5.432a3.5,3.5,0,0,1,3.139-.127l9.849,5.686c.8.465.7,1.278-.22,1.811l-9.409,5.432a3.478,3.478,0,0,1-3.131.127Z" transform="translate(-46.801 -82.17)" fill="#2b303f"/>
        <path id="Path_74" data-name="Path 74" d="M297.031,397.149l-9.849-5.695c-.8-.457-.7-1.269.22-1.811l9.409-5.424a3.478,3.478,0,0,1,3.131-.135l9.849,5.695c.8.465.7,1.269-.228,1.811l-9.4,5.424a3.469,3.469,0,0,1-3.131.135Z" transform="translate(-49.335 -83.632)" fill="#2b303f"/>
        <path id="Path_75" data-name="Path 75" d="M313.5,406.65l-9.858-5.686c-.8-.465-.7-1.278.228-1.811l9.4-5.432a3.494,3.494,0,0,1,3.139-.127l9.849,5.686c.8.465.7,1.278-.22,1.811l-9.409,5.432a3.478,3.478,0,0,1-3.131.127Z" transform="translate(-51.867 -85.094)" fill="#2b303f"/>
        <path id="Path_76" data-name="Path 76" d="M347.208,426.119l-27.077-15.646c-.8-.465-.711-1.278.22-1.811l9.4-5.432a3.5,3.5,0,0,1,3.139-.127l27.077,15.646c.8.457.7,1.269-.228,1.811l-9.4,5.424a3.5,3.5,0,0,1-3.131.135Z" transform="translate(-54.403 -86.557)" fill="#2b303f"/>
        <path id="Path_77" data-name="Path 77" d="M131.735,301.713,118.3,293.953c-.846-.465-.7-1.278.22-1.811l9.409-5.424a3.452,3.452,0,0,1,3.131-.135l13.437,7.759c.8.465.7,1.278-.22,1.811l-9.392,5.432A3.478,3.478,0,0,1,131.735,301.713Z" transform="translate(-23.352 -68.633)" fill="#2b303f"/>
        <path id="Path_78" data-name="Path 78" d="M380.635,371.46,182.768,257.228c-.846-.457-.7-1.269.228-1.811l4.7-2.708a3.478,3.478,0,0,1,3.131-.135L388.7,366.806c.8.465.7,1.269-.228,1.811l-4.7,2.733A3.5,3.5,0,0,1,380.635,371.46Z" transform="translate(-33.27 -63.401)" fill="#2b303f"/>
        <path id="Path_79" data-name="Path 79" d="M243.5,398.236a2.987,2.987,0,0,1-1.371,1.422l-54.442,31.435a6.71,6.71,0,0,1-6.033.245L88.575,377.615a2.081,2.081,0,0,1-.914-.939c-.338-.846.135-1.785,1.371-2.5l54.451-31.443a6.71,6.71,0,0,1,6.033-.245l93.078,53.723A1.642,1.642,0,0,1,243.5,398.236Z" transform="translate(-18.708 -77.189)" fill="#b1b4c4"/>
        <path id="Path_80" data-name="Path 80" d="M243.518,398.434a2.987,2.987,0,0,1-1.371,1.422l-54.442,31.435a6.71,6.71,0,0,1-6.033.245L88.594,377.813a2.081,2.081,0,0,1-.914-.939,3.055,3.055,0,0,1,1.371-1.413L143.5,344.026a6.719,6.719,0,0,1,6.033-.254L242.613,397.5A2.039,2.039,0,0,1,243.518,398.434Z" transform="translate(-18.728 -77.387)" fill="#c3c6d1"/>
        <path id="Path_81" data-name="Path 81" d="M398.28,360.961,200.413,246.729A3.486,3.486,0,0,1,199,243.945v-2.327c0-1.075.652-1.565,1.455-1.1L398.323,354.75a3.469,3.469,0,0,1,1.455,2.775v2.327C399.736,360.936,399.084,361.427,398.28,360.961Z" transform="translate(-35.853 -61.567)" fill="#2b303f"/>
        <path id="Path_82" data-name="Path 82" d="M231.64,226.455l-19.546-11.262c-2.445-1.413-4.434-5.212-4.434-8.462v-20.96c0-3.266,1.988-4.764,4.434-3.385l19.546,11.3c2.454,1.413,4.434,5.212,4.434,8.462V223.1C236.04,226.37,234.06,227.868,231.64,226.455Z" transform="translate(-37.185 -52.573)" fill="#e9eaf2"/>
        <path id="Path_83" data-name="Path 83" d="M231.556,168.8l-19.513-11.262c-2.445-1.413-4.434-7.192-4.434-10.019V123.052c0-3.266,1.989-4.764,4.434-3.385l19.513,11.262c2.454,1.413,4.434,5.212,4.434,8.462v24.471C235.99,166.739,234.01,170.217,231.556,168.8Z" transform="translate(-37.177 -42.924)" fill="#e9eaf2"/>
        <path id="Path_84" data-name="Path 84" d="M223.2,155.306a15.959,15.959,0,0,1-7.2-12.481c0-4.586,3.232-6.456,7.2-4.163a15.968,15.968,0,0,1,7.209,12.481C230.41,155.729,227.178,157.6,223.2,155.306Zm0-14.512c-2.953-1.692-5.356-.313-5.356,3.1A11.846,11.846,0,0,0,223.2,153.2c2.962,1.692,5.365.322,5.365-3.089A11.846,11.846,0,0,0,223.2,140.794Z" transform="translate(-38.468 -45.774)" fill="#8c50ff"/>
        <path id="Path_85" data-name="Path 85" d="M226.256,152.769l-3.266-5.2V143.25l1.845,1.066v3.359l2.64,4.189Z" transform="translate(-39.543 -46.631)" fill="#8c50ff"/>
        <path id="Path_86" data-name="Path 86" d="M231.526,108.012,212.014,96.75c-2.445-1.422-4.434-7.785-4.434-10.619V63.606c0-2.826,1.988-3.977,4.434-2.538l19.513,11.271a9.782,9.782,0,0,1,4.434,7.675v22.533C235.96,105.347,233.98,109.425,231.526,108.012Z" transform="translate(-37.173 -33.893)" fill="#e9eaf2"/>
        <path id="Path_87" data-name="Path 87" d="M223.065,83.6c-1.176-.677-2.124-.127-2.124,1.235a4.688,4.688,0,0,0,2.124,3.681c1.176.677,2.132.127,2.132-1.227A4.73,4.73,0,0,0,223.065,83.6Zm5.678.846-1.692-.982a1.388,1.388,0,0,1-.558-.787l-.44-1.785a1.438,1.438,0,0,0-.567-.787l-4.823-2.784c-.237-.135-.482-.076-.558.144l-.44,1.269a.364.364,0,0,1-.558.144l-1.692-.982c-.778-.457-1.413-.085-1.413.846v7.379a3.139,3.139,0,0,0,1.413,2.454l11.356,6.558c.778.448,1.422.085,1.422-.846v-7.4a3.156,3.156,0,0,0-1.447-2.462Zm-5.678,5.737a7.861,7.861,0,0,1-3.545-6.143c0-2.268,1.591-3.182,3.545-2.048a7.819,7.819,0,0,1,3.545,6.143c0,2.234-1.582,3.156-3.545,2.022Zm5.179-3.241a1.083,1.083,0,0,1-.491-.846c0-.322.22-.448.491-.288a1.083,1.083,0,0,1,.5.846c0,.3-.22.423-.5.262Z" transform="translate(-38.468 -36.477)" fill="#8c50ff"/>
        <path id="Path_88" data-name="Path 88" d="M229.453,208.315c0,3.816-5.982,8.775-5.982,8.775s-5.991-11.846-5.991-15.688,2.682-5.365,5.991-3.461A13.242,13.242,0,0,1,229.453,208.315Z" transform="translate(-38.696 -54.918)" fill="#8c50ff"/>
        <ellipse id="Ellipse_1" data-name="Ellipse 1" cx="3.199" cy="5.534" rx="3.199" ry="5.534" transform="translate(179.239 146.488) rotate(-30)" fill="#e9eaf2"/>
        <path id="Path_89" data-name="Path 89" d="M377,242.342,258.865,174.132c-2-1.142-3.6-4.231-3.6-6.879v-79.4c0-2.648,1.608-3.867,3.6-2.716L377,153.342c1.988,1.151,3.6,4.231,3.6,6.888v79.387C380.594,242.274,378.986,243.492,377,242.342Z" transform="translate(-44.507 -37.625)" fill="#e9eaf2"/>
        <path id="Path_90" data-name="Path 90" d="M365.623,190.057,274.059,137.2c-2.217-1.286-4.019-4.722-4.019-7.675V123.54c0-2.962,1.8-4.315,4.019-3.038l91.563,52.86c2.217,1.278,4.011,4.713,4.011,7.675v5.982C369.634,189.981,367.84,191.335,365.623,190.057Z" transform="translate(-46.781 -43.057)" fill="#fff"/>
        <path id="Path_91" data-name="Path 91" d="M315.826,193.1l-41.767-24.116c-2.217-1.278-4.019-4.713-4.019-7.675V155.36c0-2.962,1.8-4.315,4.019-3.038l41.767,24.116c2.217,1.278,4.011,4.713,4.011,7.675v5.94C319.837,193.015,318.043,194.377,315.826,193.1Z" transform="translate(-46.781 -47.952)" fill="#8c50ff"/>
        <path id="Path_92" data-name="Path 92" d="M401.333,279.777S356.8,289.593,320.795,249.6s-65.375-34.862-65.375-34.862V239.7l145.913,84.236Z" transform="translate(-44.532 -57.596)" fill="url(#linear-gradient-2)"/>
        <path id="Path_93" data-name="Path 93" d="M401.333,279.777S356.8,289.593,320.795,249.6s-65.375-34.862-65.375-34.862" transform="translate(-44.532 -57.596)" fill="none"/>
      </g>
      <g id="Men_12" transform="translate(196.666)">
        <path id="_Контур_" data-name="&lt;Контур&gt;" d="M253.657,40.335a32.612,32.612,0,0,1-4.713,6.431c-.508.592-4.425-.905-3.6-1.328s3.385-3.994,4.671-6.38a81.4,81.4,0,0,0,2.742-8.707c.8-2.919,1.5-7.2,2.09-9.215a3.935,3.935,0,0,1,3-3.055c1.413-.33,2.327.059,2.065,1.768C259.42,22.827,257.11,34.454,253.657,40.335Z" transform="translate(-234.424 -2.767)" fill="#ffcea9"/>
        <path id="Path_94" data-name="Path 94" d="M256.15,98.25c-1.21.99-3,.085-3.1.178a55.618,55.618,0,0,1-4.476,3.732c-.762.592-1.938,1.388-1.692,2.539.381,2.039,3.655,1.413,4.891.787s2.251-1.692,3.385-2.386c.846-.525,1.692-.787,1.785-1.845A7.029,7.029,0,0,0,256.15,98.25Z" transform="translate(-234.674 -15.117)" fill="#38226d"/>
        <path id="Path_95" data-name="Path 95" d="M256.931,101.3c-.161,1.007-.973,1.286-1.8,1.8-1.185.736-2.234,1.8-3.469,2.428s-3.985,1.151-4.789-.313c.432,1.972,3.655,1.354,4.874.736s2.251-1.692,3.385-2.386c.846-.525,1.692-.787,1.785-1.845A2.606,2.606,0,0,0,256.931,101.3Z" transform="translate(-234.677 -15.586)" fill="#9c73ff"/>
        <path id="Path_96" data-name="Path 96" d="M241.616,89.859c-1.21.99-3.334-.085-3.427,0a44.842,44.842,0,0,1-4,3.613c-.762.6-1.938,1.4-1.692,2.538.381,2.048,3.655,1.422,4.9.8s2.242-1.692,3.385-2.395c.846-.516,1.692-.787,1.785-1.836A5.629,5.629,0,0,0,241.616,89.859Z" transform="translate(-232.46 -13.825)" fill="#38226d"/>
        <path id="Path_97" data-name="Path 97" d="M242.521,92.74c-.161,1.007-.973,1.286-1.8,1.8-1.185.736-2.234,1.8-3.469,2.428s-3.994,1.151-4.789-.313c.432,1.972,3.647,1.354,4.874.736S239.576,95.7,240.719,95c.846-.516,1.692-.778,1.785-1.836a2.608,2.608,0,0,0,.017-.423Z" transform="translate(-232.46 -14.269)" fill="#9c73ff"/>
        <path id="_Контур_2" data-name="&lt;Контур&gt;" d="M270.6,51.7c1.345,8.411-2.386,11.55-7.243,13.336-3.486,1.286-8.462,3.266-8.462,3.266s.068,1.845.1,5.982c0,3.647-.44,16.923-.44,16.923a4.07,4.07,0,0,1-3.723,0s-1.955-10.2-2.369-14.8c-.567-6.236-1.523-10.323-1.2-11.669.279-1.185,7.1-4.535,9.266-6.329L242.241,63.2a25.238,25.238,0,0,1,.415,4.7c-.127,4.95-.406,15.671-.406,15.671s-1.955,1.413-3.63,0c0,0-3.6-21.213-3.156-24.023.415-2.665,13.006-8.115,15.231-9.993a3.554,3.554,0,0,1,2.792-.753Z" transform="translate(-232.916 -7.503)" fill="#8c50ff"/>
        <g id="_Группа_" data-name="&lt;Группа&gt;" transform="translate(0.987 35.926)">
          <g id="_Группа_2" data-name="&lt;Группа&gt;">
            <path id="_Контур_3" data-name="&lt;Контур&gt;" d="M236.54,55.358l9.6-5.542a.533.533,0,0,1,.55,0l16.839,9.722-9.875,5.7Z" transform="translate(-234.075 -43.58)" fill="#f4f4f4"/>
            <path id="Path_98" data-name="Path 98" d="M257.123,65.645l.736.423c.059,0,.051.093,0,.135l-.7.406a.271.271,0,0,1-.228,0l-.736-.423c-.059,0-.051-.093,0-.135l.7-.406a.271.271,0,0,1,.228,0Z" transform="translate(-237.091 -46.023)" fill="#3a2c6d"/>
            <path id="Path_99" data-name="Path 99" d="M255.9,64.994l.728.415c.059,0,.051.1,0,.135l-.694.406a.262.262,0,0,1-.237,0l-.728-.423c-.059,0-.051-.093,0-.135l.694-.4A.237.237,0,0,1,255.9,64.994Z" transform="translate(-236.904 -45.922)" fill="#3a2c6d"/>
            <path id="Path_100" data-name="Path 100" d="M254.663,64.224l.728.423c.059,0,.059.093,0,.135l-.694.4a.262.262,0,0,1-.237,0l-.728-.423c-.059,0-.051-.093,0-.135l.694-.406a.262.262,0,0,1,.237.008Z" transform="translate(-236.713 -45.803)" fill="#3a2c6d"/>
            <path id="Path_101" data-name="Path 101" d="M253.453,63.525l.728.423c.059,0,.059.093,0,.135l-.694.406a.288.288,0,0,1-.237,0l-.728-.423c-.059,0-.051-.093,0-.135l.694-.406A.288.288,0,0,1,253.453,63.525Z" transform="translate(-236.527 -45.697)" fill="#3a2c6d"/>
            <path id="Path_102" data-name="Path 102" d="M252.223,62.816l.736.423c.059,0,.051.1,0,.135l-.7.406a.245.245,0,0,1-.228,0l-.736-.423c-.059,0-.051-.093,0-.135l.7-.4a.246.246,0,0,1,.229-.008Z" transform="translate(-236.338 -45.588)" fill="#3a2c6d"/>
            <path id="Path_103" data-name="Path 103" d="M251,62.115l.736.423c.059,0,.051.093,0,.135l-.7.4a.245.245,0,0,1-.228,0l-.736-.423c-.059,0-.051-.093,0-.127l.7-.406A.245.245,0,0,1,251,62.115Z" transform="translate(-236.15 -45.479)" fill="#3a2c6d"/>
            <path id="Path_104" data-name="Path 104" d="M249.823,61.405l.728.423c.059,0,.051.093,0,.135l-.694.406a.288.288,0,0,1-.237,0l-.728-.423c-.059,0-.059-.093,0-.135l.694-.406a.288.288,0,0,1,.237,0Z" transform="translate(-235.968 -45.371)" fill="#3a2c6d"/>
            <path id="Path_105" data-name="Path 105" d="M248.553,60.7l.736.423c.059,0,.051.1,0,.135l-.7.406a.245.245,0,0,1-.228,0l-.736-.423c-.059,0-.051-.093,0-.135l.7-.4a.245.245,0,0,1,.228-.008Z" transform="translate(-235.773 -45.262)" fill="#3a2c6d"/>
            <path id="Path_106" data-name="Path 106" d="M247.333,59.995l.728.423c.059,0,.051.093,0,.135l-.694.4a.262.262,0,0,1-.237,0l-.728-.423c-.059,0-.051-.093,0-.127l.694-.406a.262.262,0,0,1,.237,0Z" transform="translate(-235.585 -45.153)" fill="#3a2c6d"/>
            <path id="Path_107" data-name="Path 107" d="M246.1,59.285l.736.423c.059,0,.051.093,0,.135l-.7.406a.271.271,0,0,1-.228,0l-.736-.423c-.059,0-.051-.093,0-.135l.7-.406a.245.245,0,0,1,.228,0Z" transform="translate(-235.396 -45.044)" fill="#3a2c6d"/>
            <path id="Path_108" data-name="Path 108" d="M244.883,58.576l.728.423c.059,0,.059.093,0,.135l-.694.406a.262.262,0,0,1-.237,0l-.728-.423c-.059,0-.051-.093,0-.135l.694-.4A.262.262,0,0,1,244.883,58.576Z" transform="translate(-235.208 -44.935)" fill="#3a2c6d"/>
            <path id="Path_109" data-name="Path 109" d="M243.662,57.875l.728.423c.059,0,.051.093,0,.135l-.7.4a.245.245,0,0,1-.228,0l-.736-.423c-.059,0-.051-.093,0-.135l.7-.4A.262.262,0,0,1,243.662,57.875Z" transform="translate(-235.019 -44.827)" fill="#3a2c6d"/>
            <path id="Path_110" data-name="Path 110" d="M242.433,57.164l.736.423c.059,0,.051.093,0,.135l-.7.4a.245.245,0,0,1-.228,0L241.5,57.7c-.059,0-.051-.1,0-.135l.7-.406a.245.245,0,0,1,.228.008Z" transform="translate(-234.832 -44.717)" fill="#3a2c6d"/>
            <path id="Path_111" data-name="Path 111" d="M240.623,56.115l1.227.711c.059,0,.051.093,0,.135l-.694.406a.288.288,0,0,1-.237,0l-1.227-.711c-.059,0-.059-.093,0-.135l.694-.406a.288.288,0,0,1,.237,0Z" transform="translate(-234.553 -44.557)" fill="#3a2c6d"/>
            <path id="Path_112" data-name="Path 112" d="M256.493,63.915l.736.423c.059,0,.051.093,0,.135l-.7.4a.22.22,0,0,1-.228,0l-.736-.415c-.059,0-.051-.1,0-.135l.7-.406a.245.245,0,0,1,.228,0Z" transform="translate(-236.995 -45.756)" fill="#3a2c6d"/>
            <path id="Path_113" data-name="Path 113" d="M255.273,63.2l.728.423c.059,0,.051.093,0,.135l-.694.406a.288.288,0,0,1-.237,0l-.728-.423c-.059,0-.059-.093,0-.135l.694-.406A.262.262,0,0,1,255.273,63.2Z" transform="translate(-236.806 -45.647)" fill="#3a2c6d"/>
            <path id="Path_114" data-name="Path 114" d="M254.043,62.5l.728.423c.068,0,.059.093,0,.135l-.694.406a.288.288,0,0,1-.237,0l-.728-.423c-.059,0-.051-.093,0-.135l.694-.406a.288.288,0,0,1,.237,0Z" transform="translate(-236.618 -45.538)" fill="#3a2c6d"/>
            <path id="Path_115" data-name="Path 115" d="M252.823,61.786l.736.423c.059,0,.051.1,0,.135l-.7.406a.245.245,0,0,1-.228,0l-.736-.423c-.059,0-.051-.093,0-.135l.7-.4A.245.245,0,0,1,252.823,61.786Z" transform="translate(-236.43 -45.429)" fill="#3a2c6d"/>
            <path id="Path_116" data-name="Path 116" d="M251.6,61.085l.728.423c.059,0,.051.093,0,.135l-.694.406a.288.288,0,0,1-.237,0l-.728-.423c-.059,0-.059-.093,0-.135l.694-.406A.288.288,0,0,1,251.6,61.085Z" transform="translate(-236.242 -45.321)" fill="#3a2c6d"/>
            <path id="Path_117" data-name="Path 117" d="M250.373,60.376l.736.423c.059,0,.051.1,0,.135l-.7.406a.245.245,0,0,1-.228,0l-.736-.423c-.059,0-.051-.093,0-.135l.7-.4a.246.246,0,0,1,.229-.008Z" transform="translate(-236.053 -45.212)" fill="#3a2c6d"/>
            <path id="Path_118" data-name="Path 118" d="M249.143,59.675l.736.423c.059,0,.051.093,0,.127l-.7.406a.245.245,0,0,1-.228,0l-.736-.423c-.059,0-.051-.093,0-.135l.7-.4A.245.245,0,0,1,249.143,59.675Z" transform="translate(-235.864 -45.104)" fill="#3a2c6d"/>
            <path id="Path_119" data-name="Path 119" d="M247.923,58.995l.728.423c.059,0,.051.093,0,.135l-.694.4a.262.262,0,0,1-.237,0l-.728-.423c-.059,0-.051-.093,0-.127l.694-.406a.262.262,0,0,1,.237,0Z" transform="translate(-235.676 -44.999)" fill="#3a2c6d"/>
            <path id="Path_120" data-name="Path 120" d="M246.693,58.254l.736.423c.059,0,.051.093,0,.135l-.7.4a.245.245,0,0,1-.228,0l-.736-.423c-.059,0-.051-.1,0-.135l.7-.406a.245.245,0,0,1,.228.008Z" transform="translate(-235.487 -44.885)" fill="#3a2c6d"/>
            <path id="Path_121" data-name="Path 121" d="M245.472,57.545l.728.423c.059,0,.051.093,0,.135l-.7.406a.271.271,0,0,1-.228,0l-.736-.423c-.059,0-.051-.093,0-.135l.7-.406A.288.288,0,0,1,245.472,57.545Z" transform="translate(-235.298 -44.777)" fill="#3a2c6d"/>
            <path id="Path_122" data-name="Path 122" d="M244.243,56.835l.728.423c.059,0,.059.093,0,.135l-.694.406a.262.262,0,0,1-.237,0l-.728-.423c-.059,0-.051-.093,0-.135l.694-.406A.288.288,0,0,1,244.243,56.835Z" transform="translate(-235.11 -44.668)" fill="#3a2c6d"/>
            <path id="Path_123" data-name="Path 123" d="M243.013,56.134l.736.415c.059,0,.051.1,0,.135l-.7.406a.245.245,0,0,1-.228,0l-.736-.423c-.059,0-.051-.093,0-.135l.7-.4A.22.22,0,0,1,243.013,56.134Z" transform="translate(-234.921 -44.559)" fill="#3a2c6d"/>
            <path id="Path_124" data-name="Path 124" d="M257.723,64.625l1.227.711c.059,0,.059.093,0,.135l-.694.4a.262.262,0,0,1-.237,0l-1.227-.711c-.059,0-.051-.093,0-.135l.694-.4A.262.262,0,0,1,257.723,64.625Z" transform="translate(-237.184 -45.865)" fill="#3a2c6d"/>
            <path id="Path_125" data-name="Path 125" d="M240.856,55.877l.728.423a.254.254,0,0,0,.22,0l.736-.432a.068.068,0,0,0,0-.127h-.059c-.051,0-.051-.076,0-.11l.778-.448c.068,0,.068-.093,0-.127l-.465-.271a.254.254,0,0,0-.22,0l-.728.423-.152.085-.11.068-.11.059-.626.364a.068.068,0,0,0,.008.093Z" transform="translate(-234.735 -44.352)" fill="#3a2c6d"/>
            <path id="Path_126" data-name="Path 126" d="M261.823,62.9l.736.423c.059,0,.051.093,0,.135l-.7.4a.22.22,0,0,1-.228,0l-.736-.415a.076.076,0,0,1,0-.135l.7-.406A.245.245,0,0,1,261.823,62.9Z" transform="translate(-237.814 -45.601)" fill="#3a2c6d"/>
            <path id="Path_127" data-name="Path 127" d="M260.643,62.2l.736.423c.059,0,.051.1,0,.135l-.7.406a.245.245,0,0,1-.228,0l-.736-.423c-.059,0-.051-.093,0-.135l.7-.4a.245.245,0,0,1,.229-.008Z" transform="translate(-237.633 -45.492)" fill="#3a2c6d"/>
            <path id="Path_128" data-name="Path 128" d="M259.423,61.494l.736.423c.059,0,.051.093,0,.135l-.7.4a.245.245,0,0,1-.228,0l-.736-.423c-.059,0-.051-.1,0-.135l.7-.406a.245.245,0,0,1,.228.008Z" transform="translate(-237.445 -45.383)" fill="#3a2c6d"/>
            <path id="Path_129" data-name="Path 129" d="M249.032,55.495l.728.423c.059,0,.051.093,0,.135l-.694.4a.262.262,0,0,1-.237,0l-.728-.423c-.068,0-.059-.093,0-.135l.694-.4a.262.262,0,0,1,.237,0Z" transform="translate(-235.846 -44.461)" fill="#3a2c6d"/>
            <path id="Path_130" data-name="Path 130" d="M247.823,54.785l.736.423c.059,0,.051.093,0,.135l-.7.406a.271.271,0,0,1-.228,0l-.736-.423c-.059,0-.051-.093,0-.135l.7-.406a.271.271,0,0,1,.228,0Z" transform="translate(-235.661 -44.352)" fill="#3a2c6d"/>
            <path id="Path_131" data-name="Path 131" d="M246.583,54.085l.736.423c.059,0,.051.093,0,.135l-.7.4a.245.245,0,0,1-.228,0l-.736-.423c-.059,0-.051-.093,0-.127l.7-.406a.245.245,0,0,1,.228,0Z" transform="translate(-235.47 -44.244)" fill="#3a2c6d"/>
            <path id="Path_132" data-name="Path 132" d="M245.363,53.375l.736.423c.059,0,.051.093,0,.135l-.7.406a.271.271,0,0,1-.229,0l-.736-.423c-.059,0-.051-.093,0-.135l.7-.406A.271.271,0,0,1,245.363,53.375Z" transform="translate(-235.282 -44.135)" fill="#3a2c6d"/>
            <path id="Path_133" data-name="Path 133" d="M257.9,60.607l1,.575c.059,0,.051.1,0,.135l-.7.406a.245.245,0,0,1-.228,0l-.973-.567c-.059,0-.059-.093,0-.135l.694-.406A.288.288,0,0,1,257.9,60.607Z" transform="translate(-237.214 -45.249)" fill="#3a2c6d"/>
            <path id="Path_134" data-name="Path 134" d="M250.253,56.2l1,.575c.059,0,.051.093,0,.135l-.7.406a.271.271,0,0,1-.228,0l-1-.575c-.059,0-.059-.093,0-.135l.694-.406A.288.288,0,0,1,250.253,56.2Z" transform="translate(-236.034 -44.569)" fill="#3a2c6d"/>
            <path id="Path_135" data-name="Path 135" d="M251.823,57.085l4.865,2.809c.059,0,.051.093,0,.135l-.694.4a.262.262,0,0,1-.237,0l-4.865-2.809c-.059,0-.051-.093,0-.127l.7-.406A.245.245,0,0,1,251.823,57.085Z" transform="translate(-236.276 -44.705)" fill="#3a2c6d"/>
            <path id="Path_136" data-name="Path 136" d="M257.353,63l.728.423c.059,0,.051.093,0,.135l-.694.406a.288.288,0,0,1-.237,0l-.728-.423c-.059,0-.059-.093,0-.135l.694-.406a.288.288,0,0,1,.237,0Z" transform="translate(-237.126 -45.615)" fill="#3a2c6d"/>
            <path id="Path_137" data-name="Path 137" d="M256.123,62.326l.736.423c.059,0,.051.1,0,.135l-.7.406a.245.245,0,0,1-.228,0l-.736-.423c-.059,0-.051-.093,0-.135l.7-.4a.245.245,0,0,1,.228-.008Z" transform="translate(-236.938 -45.512)" fill="#3a2c6d"/>
            <path id="Path_138" data-name="Path 138" d="M254.9,61.624l.736.423c.059,0,.051.093,0,.135l-.7.4a.262.262,0,0,1-.237,0l-.728-.423a.076.076,0,0,1,0-.135l.7-.406A.245.245,0,0,1,254.9,61.624Z" transform="translate(-236.75 -45.403)" fill="#3a2c6d"/>
            <path id="Path_139" data-name="Path 139" d="M253.683,60.915l.728.423c.059,0,.051.093,0,.135l-.694.406a.288.288,0,0,1-.237,0l-.728-.423c-.059,0-.051-.093,0-.135l.694-.406A.288.288,0,0,1,253.683,60.915Z" transform="translate(-236.562 -45.295)" fill="#3a2c6d"/>
            <path id="Path_140" data-name="Path 140" d="M252.453,60.215l.736.423c.059,0,.051.093,0,.135l-.7.4a.245.245,0,0,1-.228,0l-.736-.423c-.059,0-.051-.093,0-.135l.7-.4A.245.245,0,0,1,252.453,60.215Z" transform="translate(-236.373 -45.187)" fill="#3a2c6d"/>
            <path id="Path_141" data-name="Path 141" d="M251.233,59.505l.736.423c.059,0,.051.093,0,.135l-.7.406a.271.271,0,0,1-.228,0l-.736-.423c-.059,0-.051-.093,0-.135l.7-.406A.271.271,0,0,1,251.233,59.505Z" transform="translate(-236.185 -45.078)" fill="#3a2c6d"/>
            <path id="Path_142" data-name="Path 142" d="M250.013,58.8l.728.423c.059,0,.059.1,0,.135l-.694.406a.262.262,0,0,1-.237,0l-.728-.423c-.059,0-.051-.093,0-.135l.694-.4A.262.262,0,0,1,250.013,58.8Z" transform="translate(-235.998 -44.969)" fill="#3a2c6d"/>
            <path id="Path_143" data-name="Path 143" d="M248.823,58.095l.728.423c.059,0,.051.093,0,.135l-.694.4a.237.237,0,0,1-.237,0l-.728-.415c-.059,0-.059-.1,0-.135l.694-.406a.262.262,0,0,1,.237,0Z" transform="translate(-235.814 -44.861)" fill="#3a2c6d"/>
            <path id="Path_144" data-name="Path 144" d="M247.563,57.385l.736.423c.059,0,.051.093,0,.135l-.7.406a.271.271,0,0,1-.228,0l-.736-.423c-.059,0-.051-.093,0-.135l.7-.406a.271.271,0,0,1,.228,0Z" transform="translate(-235.621 -44.752)" fill="#3a2c6d"/>
            <path id="Path_145" data-name="Path 145" d="M246.342,56.684l.728.423c.068,0,.059.093,0,.127l-.7.406a.262.262,0,0,1-.237,0l-.728-.423c-.059,0-.051-.093,0-.135l.694-.4A.262.262,0,0,1,246.342,56.684Z" transform="translate(-235.432 -44.644)" fill="#3a2c6d"/>
            <path id="Path_146" data-name="Path 146" d="M245.123,55.994l.728.423c.059,0,.051.093,0,.135l-.694.406a.288.288,0,0,1-.237,0l-.728-.423c-.059,0-.051-.093,0-.135l.677-.406A.262.262,0,0,1,245.123,55.994Z" transform="translate(-235.245 -44.537)" fill="#3a2c6d"/>
            <path id="Path_147" data-name="Path 147" d="M243.893,55.266l.736.423c.059,0,.051.1,0,.135l-.7.406a.245.245,0,0,1-.228,0l-.736-.423c-.059,0-.051-.093,0-.135l.7-.4A.245.245,0,0,1,243.893,55.266Z" transform="translate(-235.056 -44.426)" fill="#3a2c6d"/>
            <path id="Path_148" data-name="Path 148" d="M258.573,63.746l1.515.846c.059,0,.051.093,0,.135l-.7.406a.271.271,0,0,1-.228,0l-1.515-.846c-.059,0-.051-.093,0-.135l.694-.4A.262.262,0,0,1,258.573,63.746Z" transform="translate(-237.314 -45.731)" fill="#3a2c6d"/>
            <path id="Path_149" data-name="Path 149" d="M259.143,62.7l.728.423c.068,0,.059.093,0,.127l-.694.406a.262.262,0,0,1-.237,0l-.728-.423c-.059,0-.051-.093,0-.135l.694-.4A.262.262,0,0,1,259.143,62.7Z" transform="translate(-237.402 -45.57)" fill="#3a2c6d"/>
            <path id="Path_150" data-name="Path 150" d="M257.923,61.995l.728.423c.059,0,.051.093,0,.135l-.694.406a.288.288,0,0,1-.237,0l-.728-.423c-.059,0-.051-.093,0-.135l.694-.406a.262.262,0,0,1,.237,0Z" transform="translate(-237.214 -45.461)" fill="#3a2c6d"/>
            <path id="Path_151" data-name="Path 151" d="M256.693,61.286l.736.423c.059,0,.051.1,0,.135l-.7.406a.245.245,0,0,1-.228,0l-.736-.423c-.059,0-.051-.093,0-.135l.7-.4a.246.246,0,0,1,.229-.008Z" transform="translate(-237.025 -45.352)" fill="#3a2c6d"/>
            <path id="Path_152" data-name="Path 152" d="M255.473,60.585l.736.423c.059,0,.051.093,0,.135l-.7.4a.22.22,0,0,1-.228,0l-.736-.415a.076.076,0,0,1,0-.135l.7-.406A.245.245,0,0,1,255.473,60.585Z" transform="translate(-236.838 -45.244)" fill="#3a2c6d"/>
            <path id="Path_153" data-name="Path 153" d="M254.253,59.875l.728.423c.059,0,.059.093,0,.135l-.694.406a.288.288,0,0,1-.237,0l-.728-.423c-.059,0-.051-.093,0-.135l.694-.406A.288.288,0,0,1,254.253,59.875Z" transform="translate(-236.65 -45.135)" fill="#3a2c6d"/>
            <path id="Path_154" data-name="Path 154" d="M253.033,59.175l.728.423c.059,0,.051.093,0,.127l-.694.406a.262.262,0,0,1-.237,0l-.728-.423c-.059,0-.059-.093,0-.135l.694-.4A.262.262,0,0,1,253.033,59.175Z" transform="translate(-236.462 -45.027)" fill="#3a2c6d"/>
            <path id="Path_155" data-name="Path 155" d="M251.823,58.465l.736.423c.059,0,.051.093,0,.135l-.7.406a.271.271,0,0,1-.228,0l-.736-.423c-.059,0-.051-.093,0-.135l.7-.406a.271.271,0,0,1,.228,0Z" transform="translate(-236.276 -44.918)" fill="#3a2c6d"/>
            <path id="Path_156" data-name="Path 156" d="M250.583,57.756l.736.423c.059,0,.051.1,0,.135l-.7.406a.245.245,0,0,1-.228,0l-.736-.423c-.059,0-.051-.093,0-.135l.7-.4a.245.245,0,0,1,.228-.008Z" transform="translate(-236.085 -44.809)" fill="#3a2c6d"/>
            <path id="Path_157" data-name="Path 157" d="M249.363,57.054l.728.423c.059,0,.051.093,0,.135l-.694.4a.262.262,0,0,1-.237,0l-.728-.423c-.059,0-.051-.1,0-.135l.694-.406A.262.262,0,0,1,249.363,57.054Z" transform="translate(-235.898 -44.7)" fill="#3a2c6d"/>
            <path id="Path_158" data-name="Path 158" d="M248.142,56.345l.728.423c.059,0,.051.093,0,.135l-.694.406a.288.288,0,0,1-.237,0l-.728-.423c-.068,0-.059-.093,0-.135l.694-.406a.288.288,0,0,1,.237,0Z" transform="translate(-235.709 -44.592)" fill="#3a2c6d"/>
            <path id="Path_159" data-name="Path 159" d="M246.913,55.645l.736.423c.059,0,.051.093,0,.135l-.7.4a.245.245,0,0,1-.228,0l-.736-.423c-.059,0-.051-.093,0-.127l.7-.406A.245.245,0,0,1,246.913,55.645Z" transform="translate(-235.521 -44.484)" fill="#3a2c6d"/>
            <path id="Path_160" data-name="Path 160" d="M244.183,54.065l2.014,1.159c.059,0,.051.093,0,.135l-.7.406a.288.288,0,0,1-.237,0L243.252,54.6c-.059,0-.059-.093,0-.127l.694-.406a.262.262,0,0,1,.237,0Z" transform="translate(-235.1 -44.241)" fill="#3a2c6d"/>
            <path id="Path_161" data-name="Path 161" d="M260.363,63.405l1,.575c.059,0,.051.1,0,.135l-.694.406a.262.262,0,0,1-.237,0l-1-.575c-.059,0-.051-.093,0-.135l.7-.406A.271.271,0,0,1,260.363,63.405Z" transform="translate(-237.59 -45.678)" fill="#3a2c6d"/>
            <path id="Path_162" data-name="Path 162" d="M239.456,56.825l14.689,8.462c.059,0,.059.093,0,.135l-.347.195a.245.245,0,0,1-.228,0l-14.7-8.462c-.059,0-.051-.093,0-.135l.347-.2A.288.288,0,0,1,239.456,56.825Z" transform="translate(-234.427 -44.665)" fill="#3a2c6d"/>
            <path id="_Контур_4" data-name="&lt;Контур&gt;" d="M258.573,56.8l-.1.051-2.538,1.472-4.51-2.606-.093-.059,2.632-1.515Z" transform="translate(-236.35 -44.257)" fill="#bfbfbf"/>
            <path id="_Контур_5" data-name="&lt;Контур&gt;" d="M258.489,56.868,255.95,58.34l-4.51-2.606,2.538-1.464Z" transform="translate(-236.367 -44.277)" fill="#e5e5e5"/>
            <path id="_Контур_6" data-name="&lt;Контур&gt;" d="M263.532,60.559v.228a.922.922,0,0,1-.457.8l-8.952,5.162a.905.905,0,0,1-.922,0l-16.2-9.308a.931.931,0,0,1-.465-.846V56.37l17.118,9.883Z" transform="translate(-234.074 -44.6)" fill="#e5e5e5"/>
            <path id="_Контур_7" data-name="&lt;Контур&gt;" d="M252.956,64.288a1.1,1.1,0,0,1-.948-.068l-16.077-9.308a1.092,1.092,0,0,1-.533-.77l-1.768-10.526a1.26,1.26,0,0,1,0-.178,1.075,1.075,0,0,1,.33-.778l16.754,9.672a.846.846,0,0,1,.389.567Z" transform="translate(-233.626 -42.491)" fill="#f4f4f4"/>
            <path id="_Контур_8" data-name="&lt;Контур&gt;" d="M253.267,64.122l-.11.068-.144.068L251.1,52.868a.846.846,0,0,0-.389-.567L234,42.629a.727.727,0,0,1,.22-.169l16.788,9.689a.846.846,0,0,1,.4.567Z" transform="translate(-233.684 -42.46)" fill="#e5e5e5"/>
          </g>
        </g>
        <path id="_Контур_9" data-name="&lt;Контур&gt;" d="M269.54,14.83s-.212,4-.118,4.358,1.836,1.532,2.344,1.955S269,24.8,267.407,25.526s-6.651-1.193-6.769-3.681.846-4.561,1.642-4.671S269.54,14.83,269.54,14.83Z" transform="translate(-236.793 -2.284)" fill="#ffcea9"/>
        <path id="_Контур_10" data-name="&lt;Контур&gt;" d="M269.261,20.158s-2.9,4.332-6.956,4.739c-1.278-1.261-1.4-5.745.372-7.175,0,0-1.625-1.32-2.742-1.058a5.712,5.712,0,0,0-2.538,3.19,26.062,26.062,0,0,0-1.43,9.308c.068,4.231,0,14.986,0,14.986a9.147,9.147,0,0,0,4.273,6.152,13.192,13.192,0,0,0,9.655,1.337,4.778,4.778,0,0,0,3.529-3.122c-.186-2.97-1.362-9.1-.846-12.853s1.286-6.541,1.489-9.562-.4-2.97-1.921-4.053a23.789,23.789,0,0,0-2.885-1.887Z" transform="translate(-236.075 -2.561)" fill="#f4f4f4"/>
        <path id="_Контур_11" data-name="&lt;Контур&gt;" d="M265.993,55.738a19.465,19.465,0,0,1,2.276-1.3,4.832,4.832,0,0,0,1.946-1.185c.711-.694,1.878-3.334,2.716-5.923a26.4,26.4,0,0,0,.973-8.944c-.347-3.613-1.65-8.665-1.98-10.738s.338-2.911,1.312-3.672c1.134-.9,2.7-.5,3.537,2.412a55.85,55.85,0,0,1,1.862,12.329,28.076,28.076,0,0,1-1.413,9.113,32.9,32.9,0,0,1-3.469,7.159c-.4.668-.533,1.269-1.142,2.64a9.207,9.207,0,0,1-2.657,3.537c-1.015.728-1.5.846-1.743.694s-.237-.5.195-.846a7.682,7.682,0,0,0,1.811-2.039s-.888.9-1.472,1.388a7.615,7.615,0,0,1-1.692,1.083c-.592.262-1.422-.245-1-.643s.846-.6,1.692-1.337a7.319,7.319,0,0,0,1.21-1.312,14.141,14.141,0,0,1-1.887,1.227,3.224,3.224,0,0,1-1.692.465c-.313,0-.694-.457-.1-.846a11.6,11.6,0,0,0,2.259-1.6c.652-.643,1.015-1.193.846-1.2s-.542.389-1.3.635-1.582,0-1.692-.4S265.282,56.085,265.993,55.738Z" transform="translate(-237.46 -3.625)" fill="#ffcea9"/>
        <path id="_Контур_12" data-name="&lt;Контур&gt;" d="M260.392,6.808h0c.482-3.105,2.725-5.458,5.923-5.28a6.16,6.16,0,0,1,3.139,11.254,6.3,6.3,0,0,1-.5,1.362c-1.125,1.32-4.552,2.166-5.551,2a2.919,2.919,0,0,1-2.538-2.09C259.8,11.615,260.13,8.348,260.392,6.808Z" transform="translate(-236.717 -0.236)" fill="#fea900"/>
        <path id="Path_163" data-name="Path 163" d="M269.547,12.549h0l-.3-2.716S271.468,4.1,266.23,5.2c-3.452.728-4.324,1.049-5.373-1.269S263.489-.482,267.914.1a6.075,6.075,0,0,1,5.449,6.169C273.254,7.98,272.8,11.432,269.547,12.549Z" transform="translate(-236.801 -0.003)" fill="#3a2c6d"/>
        <path id="Path_164" data-name="Path 164" d="M280.316,31.677s-2.86,2.843-6.236,2.022c-.482-.33-1.65-6.972-1.65-6.972s0-3.681,2.826-3.588S280.316,31.677,280.316,31.677Z" transform="translate(-238.609 -3.562)" fill="#ededed"/>
        <path id="Path_165" data-name="Path 165" d="M255.865,25.165a3.105,3.105,0,0,1-2.115-.939c.118-1.489,2.022-7.142,5.847-7.556a7.066,7.066,0,0,0-2.386,2.885,36.645,36.645,0,0,0-1.345,5.61Z" transform="translate(-235.735 -2.567)" fill="#ededed"/>
      </g>
      <path id="Path_166" data-name="Path 166" d="M445.09,279.446l-70.672-40.8c-4.442-2.538-8.039-9.435-8.039-15.349V112.1c0-5.923,3.6-8.631,8.039-6.075l70.672,40.811c4.434,2.538,8.03,9.435,8.03,15.349V273.4C453.12,279.32,449.524,282.01,445.09,279.446Z" transform="translate(-56.396 -16.165)" fill="#211b49"/>
      <path id="Path_167" data-name="Path 167" d="M462.74,312.27l2.42-1.193-1.633-3.207Z" transform="translate(-71.22 -47.364)" fill="#211b49"/>
      <path id="Path_168" data-name="Path 168" d="M367.94,106.375a14.138,14.138,0,0,1,2.234-1.075l1.794,3.545Z" transform="translate(-56.636 -16.201)" fill="#211b49"/>
      <path id="Path_169" data-name="Path 169" d="M442.9,280.546l-70.68-40.827c-4.434-2.539-8.03-9.435-8.03-15.349V113.2c0-5.923,3.6-8.639,8.03-6.075l70.68,40.811c4.434,2.538,8.03,9.426,8.03,15.341V274.47C450.93,280.385,447.334,283.11,442.9,280.546Z" transform="translate(-56.059 -16.333)" fill="#2e245b"/>
      <path id="Path_170" data-name="Path 170" d="M386.533,132.508l-12.853-7.421V120.45l12.853,7.421Z" transform="translate(-57.519 -18.532)" fill="#a298e2"/>
      <path id="Path_171" data-name="Path 171" d="M446.331,167.035,391.72,135.5V130.87L446.331,162.4Z" transform="translate(-60.294 -20.135)" fill="#c33afc"/>
      <path id="Path_172" data-name="Path 172" d="M386.533,150.048l-12.853-7.421V137.99l12.853,7.421Z" transform="translate(-57.519 -21.23)" fill="#a298e2"/>
      <path id="Path_173" data-name="Path 173" d="M427.86,173.9l-36.14-20.866V148.4l36.14,20.866Z" transform="translate(-60.294 -22.832)" fill="#f4ce2c"/>
      <path id="Path_174" data-name="Path 174" d="M386.533,158.809,373.68,151.4V146.76l12.853,7.412Z" transform="translate(-57.519 -22.579)" fill="#a298e2"/>
      <path id="Path_175" data-name="Path 175" d="M436.694,187.776,391.72,161.807V157.17l44.974,25.969Z" transform="translate(-60.294 -24.181)" fill="#ff8657"/>
      <path id="Path_176" data-name="Path 176" d="M386.533,167.578l-12.853-7.421V155.52l12.853,7.421Z" transform="translate(-57.519 -23.927)" fill="#a298e2"/>
      <path id="Path_177" data-name="Path 177" d="M423.045,188.66,391.72,170.577V165.94l31.325,18.083Z" transform="translate(-60.294 -25.53)" fill="#a298e2"/>
      <path id="Path_178" data-name="Path 178" d="M386.533,141.278l-12.853-7.421V129.22l12.853,7.421Z" transform="translate(-57.519 -19.881)" fill="#a298e2"/>
      <path id="Path_179" data-name="Path 179" d="M419.026,160.039,391.72,144.267V139.63l27.306,15.764Z" transform="translate(-60.294 -21.483)" fill="#4d3bff"/>
      <path id="Path_180" data-name="Path 180" d="M386.533,176.348l-12.853-7.421V164.29l12.853,7.421Z" transform="translate(-57.519 -25.276)" fill="#a298e2"/>
      <path id="Path_181" data-name="Path 181" d="M407.78,188.611l-16.06-9.274V174.7l16.06,9.274Z" transform="translate(-60.294 -26.878)" fill="#c33afc"/>
      <path id="Path_182" data-name="Path 182" d="M386.533,193.879l-12.853-7.412V181.83l12.853,7.421Z" transform="translate(-57.519 -27.974)" fill="#a298e2"/>
      <path id="Path_183" data-name="Path 183" d="M442.321,226.087l-50.6-29.21V192.24l50.6,29.21Z" transform="translate(-60.294 -29.576)" fill="#f4ce2c"/>
      <path id="Path_184" data-name="Path 184" d="M386.533,202.648l-12.853-7.421V190.59l12.853,7.421Z" transform="translate(-57.519 -29.322)" fill="#a298e2"/>
      <path id="Path_185" data-name="Path 185" d="M406.976,214.456l-15.256-8.809V201.01l15.256,8.809Z" transform="translate(-60.294 -30.925)" fill="#ff8657"/>
      <path id="Path_186" data-name="Path 186" d="M386.533,211.418,373.68,204V199.36l12.853,7.421Z" transform="translate(-57.519 -30.671)" fill="#a298e2"/>
      <path id="Path_187" data-name="Path 187" d="M436.694,240.377,391.72,214.409V209.78l44.974,25.96Z" transform="translate(-60.294 -32.274)" fill="#a298e2"/>
      <path id="Path_188" data-name="Path 188" d="M386.533,185.118,373.68,177.7V173.06l12.853,7.421Z" transform="translate(-57.519 -26.625)" fill="#a298e2"/>
      <path id="Path_189" data-name="Path 189" d="M434.282,212.688,391.72,188.107V183.47l42.562,24.581Z" transform="translate(-60.294 -28.227)" fill="#4d3bff"/>
      <path id="Path_190" data-name="Path 190" d="M386.533,220.188l-12.853-7.421V208.13l12.853,7.421Z" transform="translate(-57.519 -32.02)" fill="#a298e2"/>
      <path id="Path_191" data-name="Path 191" d="M397.338,226.426l-5.618-3.249V218.54l5.618,3.249Z" transform="translate(-60.294 -33.622)" fill="#c33afc"/>
      <path id="Path_192" data-name="Path 192" d="M386.533,237.719l-12.853-7.412V225.67l12.853,7.421Z" transform="translate(-57.519 -34.719)" fill="#a298e2"/>
      <path id="Path_193" data-name="Path 193" d="M402.162,246.742l-10.442-6.025V236.08l10.442,6.025Z" transform="translate(-60.294 -36.32)" fill="#f4ce2c"/>
      <path id="Path_194" data-name="Path 194" d="M386.533,246.488l-12.853-7.421V234.43l12.853,7.421Z" transform="translate(-57.519 -36.066)" fill="#a298e2"/>
      <path id="Path_195" data-name="Path 195" d="M419.026,265.251,391.72,249.487V244.85l27.306,15.764Z" transform="translate(-60.294 -37.669)" fill="#ff8657"/>
      <path id="Path_196" data-name="Path 196" d="M386.533,255.258l-12.853-7.421V243.2l12.853,7.421Z" transform="translate(-57.519 -37.415)" fill="#a298e2"/>
      <path id="Path_197" data-name="Path 197" d="M435.086,283.293,391.72,258.247V253.61l43.366,25.046Z" transform="translate(-60.294 -39.017)" fill="#a298e2"/>
      <path id="Path_198" data-name="Path 198" d="M386.533,228.958l-12.853-7.421V216.9l12.853,7.421Z" transform="translate(-57.519 -33.369)" fill="#a298e2"/>
      <path id="Path_199" data-name="Path 199" d="M446.331,263.484,391.72,231.947V227.31l54.611,31.528Z" transform="translate(-60.294 -34.971)" fill="#4d3bff"/>
      <path id="Path_200" data-name="Path 200" d="M30.57,196.644l-7.717-3.96-16.17,9.308C3.018,204.107.04,202.4.04,198.159V180.542a14.689,14.689,0,0,1,6.642-11.508l96.3-55.618c3.664-2.115,6.642-.4,6.642,3.833v17.676a14.689,14.689,0,0,1-6.642,11.508l-64.748,37.35" transform="translate(-0.04 -17.311)" fill="#b1b4c4"/>
      <path id="Path_201" data-name="Path 201" d="M126.4,112.77l3.639,1.472-3.08,3.165-2.183-3.495Z" transform="translate(-19.229 -17.351)" fill="#b1b4c4"/>
      <path id="Path_202" data-name="Path 202" d="M36.12,211.5l3.833,1.54.008-3.3-3.393-.677Z" transform="translate(-5.59 -32.163)" fill="#b1b4c4"/>
      <path id="Path_203" data-name="Path 203" d="M6.826,220.077c.144.3-4.155-1.455-4.307-1.692S7.732,215,7.732,215Z" transform="translate(-0.421 -33.077)" fill="#b1b4c4"/>
      <path id="Path_204" data-name="Path 204" d="M42.76,185.6l64.749-37.375a14.715,14.715,0,0,0,6.642-11.508V119.07c0-4.231-2.979-5.923-6.642-3.842L11.172,170.847A14.706,14.706,0,0,0,4.53,182.355V200c0,4.231,2.978,5.923,6.642,3.833l16.17-9.308,7.751,3.968Z" transform="translate(-0.731 -17.592)" fill="#e9eaf2"/>
      <path id="Path_205" data-name="Path 205" d="M107.082,132.413,14.74,185.721v-6.135l92.342-53.317Z" transform="translate(-2.301 -19.427)" fill="#8c50ff"/>
      <path id="Path_206" data-name="Path 206" d="M75.2,166.863l-60.458,34.9v-6.143L75.2,160.72Z" transform="translate(-2.301 -24.727)" fill="#8c50ff"/>
    </g>
  </svg>